<svg xmlns="http://www.w3.org/2000/svg" width="100" height="100" viewBox="0 0 100 100"><path fill="#57C7ED" d="M50 0C22.386 0 0 22.386 0 50s22.386 50 50 50 50-22.386 50-50S77.614 0 50 0z"/><path fill="#79D2F1" d="M54 10H40c-1.104 0-2 .895-2 2s.896 2 2 2h2V14c.813.018 1.47.68 1.47 1.497 0 .817-.656 1.48-1.47 1.496V17h-8c-1.104 0-2 .895-2 2s.896 2 2 2h15c1.104 0 2-.897 2-2s-.896-2-2-2c-.828 0-1.5-.673-1.5-1.5S48.172 14 49 14h5c1.104 0 2-.897 2-2s-.896-2-2-2z"/><path fill="#53BDE1" d="M70.155 30.826c-1.925-1.927-6.752-.22-9.062 2.093l-8.79 8.794c-.86-.798-22.206-8.41-22.974-7.644l-2.787 2.78c-.77.77-.77 2.016 0 2.784l15.607 12.24L36 58.028c-.468.468-1.055 1.188-1.675 2.046l-.245-.245c-.393-.393-5.997-1.1-6.39-.71l-1.42 1.418c-.392.39-.392 1.025 0 1.417l.7.697 3.754 3.747c-.744 1.854-1.02 3.465-.3 4.184.72.72 2.33.444 4.188-.303l3.7 3.692.735.734c.392.392 1.027.392 1.42 0l1.42-1.416c.392-.393-.318-5.986-.71-6.377l-.242-.24c.853-.62 1.568-1.204 2.034-1.67l6.15-6.155 12.245 15.558c.77.768 2.017.768 2.786 0l2.787-2.782c.77-.768-6.87-22.116-7.657-22.944l8.78-8.787c2.314-2.31 4.02-7.14 2.095-9.067zm0 0c-1.925-1.927-6.752-.22-9.062 2.093l-8.79 8.794c-.86-.798-22.206-8.41-22.974-7.644l-2.787 2.78c-.77.77-.77 2.016 0 2.784l15.607 12.24L36 58.028c-.468.468-1.055 1.188-1.675 2.046l-.245-.245c-.393-.393-5.997-1.1-6.39-.71l-1.42 1.418c-.392.39-.392 1.025 0 1.417l.7.697 3.754 3.747c-.744 1.854-1.02 3.465-.3 4.184.72.72 2.33.444 4.188-.303l3.7 3.692.735.734c.392.392 1.027.392 1.42 0l1.42-1.416c.392-.393-.318-5.986-.71-6.377l-.242-.24c.853-.62 1.568-1.204 2.034-1.67l6.15-6.155 12.245 15.558c.77.768 2.017.768 2.786 0l2.787-2.782c.77-.768-6.87-22.116-7.657-22.944l8.78-8.787c2.314-2.31 4.02-7.14 2.095-9.067z"/><path fill="#676767" d="M39 32c-1.104 0-2 .895-2 2s.896 2 2 2 2-.897 2-2-.896-2-2-2zm6 2c-1.104 0-2 .895-2 2s.896 2 2 2 2-.897 2-2-.896-2-2-2zm22 21c0-1.105-.896-2-2-2s-2 .895-2 2 .896 2 2 2 2-.896 2-2zm0 4c-1.104 0-2 .895-2 2s.896 2 2 2 2-.897 2-2-.896-2-2-2zM39 32c-1.104 0-2 .895-2 2s.896 2 2 2 2-.897 2-2-.896-2-2-2zm6 2c-1.104 0-2 .895-2 2s.896 2 2 2 2-.897 2-2-.896-2-2-2zm22 21c0-1.105-.896-2-2-2s-2 .895-2 2 .896 2 2 2 2-.896 2-2zm0 4c-1.104 0-2 .895-2 2s.896 2 2 2 2-.897 2-2-.896-2-2-2z"/><path fill="#8AD8F2" d="M100 50c0-6.73-1.338-13.142-3.747-19H87c-1.104 0-2 .895-2 2s.896 2 2 2h6c.828 0 1.5.67 1.5 1.5 0 .827-.672 1.5-1.5 1.5h-1.5c-1.38 0-2.5 1.118-2.5 2.5s1.12 2.5 2.5 2.5H96c.828 0 1.5.67 1.5 1.5S96.828 46 96 46H85c-1.657 0-3 1.343-3 3 0 1.656 1.343 3 3 3h14.95c.026-.665.05-1.33.05-2z"/><path d="M43.707 37.706l-1.414-1.414L5.6 72.984c.32.618.654 1.228 1 1.83l37.107-37.108zM3.937 69.478l33.77-33.77-1.413-1.416L3.136 67.45c.254.682.517 1.36.8 2.028zm62.77-5.77l-1.414-1.415-34.055 34.054c.676.274 1.357.536 2.048.78l33.42-33.42zM25.82 93.765c.61.338 1.23.66 1.855.973l35.03-35.033-1.413-1.413L25.82 93.766z" fill="#70CFF0"/><path d="M43.246 38.167c-.69-.244-1.39-.49-2.095-.733l-7.653 7.654 1.585 1.243 8.164-8.163zM29.014 41.57l1.585 1.245 6.685-6.686c-.74-.243-1.46-.474-2.143-.69l-6.128 6.13zm26.468 25.36l7.225-7.224-1.414-1.413-7.056 7.056zm9.85-1.848c-.22-.687-.453-1.4-.696-2.132l-6.875 6.874 1.247 1.583 6.325-6.325z" fill="#66C3E3"/><path fill="#EAEAEA" d="M36.08 57.83l7.1 7.085c.392.39 1.102 5.984.71 6.377l-1.42 1.416c-.393.392-1.028.392-1.42 0l-.736-.734-5.63-5.62-5.712-5.7-.7-.697c-.392-.392-.392-1.026 0-1.417l1.42-1.417c.392-.393 5.996.315 6.39.707zm18.234-18.11l6.965 6.955c.768.77 8.43 22.182 7.66 22.95l-2.786 2.782c-.77.768-2.017.768-2.786 0l-15.348-19.5-19.476-15.272c-.77-.77-.77-2.015 0-2.783l2.786-2.78c.77-.77 22.215 6.88 22.984 7.65z"/><path fill="#fff" d="M72.155 28.826c1.925 1.926.22 6.757-2.09 9.067L44.97 63.005c-2.31 2.312-10.622 7.507-12.546 5.58C30.5 66.66 35.692 58.34 38 56.03l25.094-25.11c2.31-2.314 7.136-4.02 9.06-2.094z"/><path fill="#DEDEDE" d="M40.298 46.853l3.963 3.107 10.147-10.146-.093-.093c-.223-.22-2.18-1.02-4.86-2.023l-9.156 9.156z"/><path fill="#F2F2F2" d="M40 58.03l25.094-25.11c1.893-1.896 5.472-3.38 7.763-2.797-.128-.505-.354-.95-.7-1.297-1.926-1.927-6.753-.22-9.063 2.093L38 56.03c-2.31 2.31-7.5 10.63-5.574 12.555.348.35.91.458 1.6.4.262-3.14 4.082-9.06 5.975-10.956z"/></svg>