<svg xmlns="http://www.w3.org/2000/svg" width="100" height="100" viewBox="0 0 100 100"><path fill="#EEF3F3" d="M50 0C22.386 0 0 22.385 0 50s22.386 50 50 50 50-22.386 50-50S77.614 0 50 0z"/><path fill="#E2574C" d="M10 54c0 10.492 8.507 19 19 19h65.393C97.968 66.11 100 58.294 100 50c0-5.228-.805-10.265-2.293-15H29c-10.493 0-19 8.506-19 19z"/><path fill="#CB4E44" d="M76 73h18.393C97.968 66.11 100 58.294 100 50c0-5.228-.805-10.265-2.293-15H76v38zm21.03-6H29c-9.47 0-17.3-6.937-18.74-16-.157.978-.26 1.976-.26 3 0 10.492 8.507 19 19 19h65.393c1.002-1.933 1.89-3.933 2.638-6z"/><path fill="#C84D43" d="M39 43c-.553 0-1 .446-1 1s.447 1 1 1 1-.448 1-1-.447-1-1-1zm6 12c-.553 0-1 .446-1 1s.447 1 1 1 1-.448 1-1-.447-1-1-1zm2-12c-.553 0-1 .446-1 1s.447 1 1 1 1-.448 1-1-.447-1-1-1zm0 10c.553 0 1-.448 1-1s-.447-1-1-1-1 .446-1 1 .447 1 1 1zm-2-6c-.553 0-1 .446-1 1s.447 1 1 1 1-.448 1-1-.447-1-1-1zm-4 8c-.553 0-1 .446-1 1s.447 1 1 1 1-.448 1-1-.447-1-1-1zm-2-2c.553 0 1-.448 1-1s-.447-1-1-1-1 .446-1 1 .447 1 1 1zm2-6c-.553 0-1 .446-1 1s.447 1 1 1 1-.448 1-1-.447-1-1-1zm2-4c-.553 0-1 .446-1 1s.447 1 1 1 1-.448 1-1-.447-1-1-1zm0 10c.553 0 1-.448 1-1s-.447-1-1-1-1 .446-1 1 .447 1 1 1zm12-10c-.553 0-1 .446-1 1s.447 1 1 1 1-.448 1-1-.447-1-1-1zm0 10c.553 0 1-.448 1-1s-.447-1-1-1-1 .446-1 1 .447 1 1 1zm-2-6c-.553 0-1 .446-1 1s.447 1 1 1 1-.448 1-1-.447-1-1-1zm4 8c-.553 0-1 .446-1 1s.447 1 1 1 1-.448 1-1-.447-1-1-1zm-8-8c-.553 0-1 .446-1 1s.447 1 1 1 1-.448 1-1-.447-1-1-1zm4 8c-.553 0-1 .446-1 1s.447 1 1 1 1-.448 1-1-.447-1-1-1zm-4 0c-.553 0-1 .446-1 1s.447 1 1 1 1-.448 1-1-.447-1-1-1zm2-12c-.553 0-1 .446-1 1s.447 1 1 1 1-.448 1-1-.447-1-1-1zm-32 2c.553 0 1-.448 1-1s-.447-1-1-1-1 .446-1 1 .447 1 1 1zm-2 4c.553 0 1-.448 1-1s-.447-1-1-1-1 .446-1 1 .447 1 1 1zm2 2c-.553 0-1 .446-1 1s.447 1 1 1 1-.448 1-1-.447-1-1-1zm2 6c.553 0 1-.448 1-1s-.447-1-1-1-1 .446-1 1 .447 1 1 1zm36-10c-.553 0-1 .446-1 1s.447 1 1 1 1-.448 1-1-.447-1-1-1zm-44 2c.553 0 1-.448 1-1s-.447-1-1-1-1 .446-1 1 .447 1 1 1zm4 8c.553 0 1-.448 1-1s-.447-1-1-1-1 .446-1 1 .447 1 1 1zm-2-12c.553 0 1-.448 1-1s-.447-1-1-1-1 .446-1 1 .447 1 1 1zm-1 11c0-.554-.447-1-1-1s-1 .446-1 1 .447 1 1 1 1-.448 1-1zm1-5c-.553 0-1 .446-1 1s.447 1 1 1 1-.448 1-1-.447-1-1-1zm6-10c.553 0 1-.448 1-1s-.447-1-1-1-1 .446-1 1 .447 1 1 1zm12 6c-.553 0-1 .446-1 1s.447 1 1 1 1-.448 1-1-.447-1-1-1zm2 6c.553 0 1-.448 1-1s-.447-1-1-1-1 .446-1 1 .447 1 1 1zm0-10c-.553 0-1 .446-1 1s.447 1 1 1 1-.448 1-1-.447-1-1-1zm2 12c-.553 0-1 .446-1 1s.447 1 1 1 1-.448 1-1-.447-1-1-1zm0-8c-.553 0-1 .446-1 1s.447 1 1 1 1-.448 1-1-.447-1-1-1zm-16 0c-.553 0-1 .446-1 1s.447 1 1 1 1-.448 1-1-.447-1-1-1zm2-4c-.553 0-1 .446-1 1s.447 1 1 1 1-.448 1-1-.447-1-1-1zm0 10c.553 0 1-.448 1-1s-.447-1-1-1-1 .446-1 1 .447 1 1 1zm28 0c.553 0 1-.448 1-1s-.447-1-1-1-1 .446-1 1 .447 1 1 1zM31 67c-.553 0-1 .446-1 1s.447 1 1 1 1-.448 1-1-.447-1-1-1zm2-26c.553 0 1-.448 1-1s-.447-1-1-1-1 .446-1 1 .447 1 1 1zm4 0c.553 0 1-.448 1-1s-.447-1-1-1-1 .446-1 1 .447 1 1 1zm-2 26c-.553 0-1 .446-1 1s.447 1 1 1 1-.448 1-1-.447-1-1-1zm6-26c.553 0 1-.448 1-1s-.447-1-1-1-1 .446-1 1 .447 1 1 1zm12 0c.553 0 1-.448 1-1s-.447-1-1-1-1 .446-1 1 .447 1 1 1zm-4 0c.553 0 1-.448 1-1s-.447-1-1-1-1 .446-1 1 .447 1 1 1zm-4 0c.553 0 1-.448 1-1s-.447-1-1-1-1 .446-1 1 .447 1 1 1zM12 52c0-.554-.447-1-1-1-.34 0-.628.18-.808.44-.042.316-.084.632-.11.952.152.356.505.606.918.606.553 0 1-.446 1-1zm59 15c-.553 0-1 .446-1 1s.447 1 1 1 1-.448 1-1-.447-1-1-1zm-8 0c-.553 0-1 .446-1 1s.447 1 1 1 1-.448 1-1-.447-1-1-1zm-24 0c-.553 0-1 .446-1 1s.447 1 1 1 1-.448 1-1-.447-1-1-1zm18-26c.553 0 1-.448 1-1s-.447-1-1-1-1 .446-1 1 .447 1 1 1zm2 26c-.553 0-1 .446-1 1s.447 1 1 1 1-.448 1-1-.447-1-1-1zm8 0c-.553 0-1 .446-1 1s.447 1 1 1 1-.448 1-1-.447-1-1-1zm-24 0c-.553 0-1 .446-1 1s.447 1 1 1 1-.448 1-1-.447-1-1-1zm4 0c-.553 0-1 .446-1 1s.447 1 1 1 1-.448 1-1-.447-1-1-1zm4 0c-.553 0-1 .446-1 1s.447 1 1 1 1-.448 1-1-.447-1-1-1zm4 0c-.553 0-1 .446-1 1s.447 1 1 1 1-.448 1-1-.447-1-1-1zm14-12c-.553 0-1 .446-1 1s.447 1 1 1 1-.448 1-1-.447-1-1-1zm-4 0c-.553 0-1 .446-1 1s.447 1 1 1 1-.448 1-1-.447-1-1-1zm-2-2c.553 0 1-.448 1-1s-.447-1-1-1-1 .446-1 1 .447 1 1 1zm2-6c-.553 0-1 .446-1 1s.447 1 1 1 1-.448 1-1-.447-1-1-1zm2-4c-.553 0-1 .446-1 1s.447 1 1 1 1-.448 1-1-.447-1-1-1zm-6 12c-.553 0-1 .446-1 1s.447 1 1 1 1-.448 1-1-.447-1-1-1zm-2-2c.553 0 1-.448 1-1s-.447-1-1-1-1 .446-1 1 .447 1 1 1zm8 0c.553 0 1-.448 1-1s-.447-1-1-1-1 .446-1 1 .447 1 1 1zm-6-6c-.553 0-1 .446-1 1s.447 1 1 1 1-.448 1-1-.447-1-1-1zm2-4c-.553 0-1 .446-1 1s.447 1 1 1 1-.448 1-1-.447-1-1-1zm-2-2c.553 0 1-.448 1-1s-.447-1-1-1-1 .446-1 1 .447 1 1 1zm-2 2c-.553 0-1 .446-1 1s.447 1 1 1 1-.448 1-1-.447-1-1-1zm10-2c.553 0 1-.448 1-1s-.447-1-1-1-1 .446-1 1 .447 1 1 1zm2 10c-.553 0-1 .446-1 1s.447 1 1 1 1-.448 1-1-.447-1-1-1zm-6-10c.553 0 1-.448 1-1s-.447-1-1-1-1 .446-1 1 .447 1 1 1zm8 14c-.553 0-1 .446-1 1s.447 1 1 1 1-.448 1-1-.447-1-1-1zm-4-6c.553 0 1-.448 1-1s-.447-1-1-1-1 .446-1 1 .447 1 1 1zm4-2c-.553 0-1 .446-1 1s.447 1 1 1 1-.448 1-1-.447-1-1-1zm-2-4c-.553 0-1 .446-1 1s.447 1 1 1 1-.448 1-1-.447-1-1-1zM37 71c-.553 0-1 .446-1 1s.447 1 1 1 1-.448 1-1-.447-1-1-1zm36-8c-.553 0-1 .446-1 1s.447 1 1 1 1-.448 1-1-.447-1-1-1zm-2-2c.553 0 1-.448 1-1s-.447-1-1-1-1 .446-1 1 .447 1 1 1zm-2 4c.553 0 1-.448 1-1s-.447-1-1-1-1 .446-1 1 .447 1 1 1zm-2-4c.553 0 1-.448 1-1s-.447-1-1-1-1 .446-1 1 .447 1 1 1zm-2 4c.553 0 1-.448 1-1s-.447-1-1-1-1 .446-1 1 .447 1 1 1zm-2-28c.553 0 1-.448 1-1s-.447-1-1-1-1 .446-1 1 .447 1 1 1zm4 0c.553 0 1-.448 1-1s-.447-1-1-1-1 .446-1 1 .447 1 1 1zm4 0c.553 0 1-.448 1-1s-.447-1-1-1-1 .446-1 1 .447 1 1 1zm2 4c.553 0 1-.448 1-1s-.447-1-1-1-1 .446-1 1 .447 1 1 1zM63 61c.553 0 1-.448 1-1s-.447-1-1-1-1 .446-1 1 .447 1 1 1zm-12 0c.553 0 1-.448 1-1s-.447-1-1-1-1 .446-1 1 .447 1 1 1zm2 4c.553 0 1-.448 1-1s-.447-1-1-1-1 .446-1 1 .447 1 1 1zm-4 0c.553 0 1-.448 1-1s-.447-1-1-1-1 .446-1 1 .447 1 1 1zm6-4c.553 0 1-.448 1-1s-.447-1-1-1-1 .446-1 1 .447 1 1 1zm4 0c.553 0 1-.448 1-1s-.447-1-1-1-1 .446-1 1 .447 1 1 1zm2 4c.553 0 1-.448 1-1s-.447-1-1-1-1 .446-1 1 .447 1 1 1zm-2-28c.553 0 1-.448 1-1s-.447-1-1-1-1 .446-1 1 .447 1 1 1zm-2 28c.553 0 1-.448 1-1s-.447-1-1-1-1 .446-1 1 .447 1 1 1zM31 37c.553 0 1-.448 1-1s-.447-1-1-1-1 .446-1 1 .447 1 1 1zm22 34c-.553 0-1 .446-1 1s.447 1 1 1 1-.448 1-1-.447-1-1-1zm-4 0c-.553 0-1 .446-1 1s.447 1 1 1 1-.448 1-1-.447-1-1-1zM11 59c-.105 0-.202.028-.297.06.176.64.382 1.264.622 1.874.39-.136.675-.497.675-.935 0-.554-.447-1-1-1zm44-22c.553 0 1-.448 1-1s-.447-1-1-1-1 .446-1 1 .447 1 1 1zm18 34c-.553 0-1 .446-1 1s.447 1 1 1 1-.448 1-1-.447-1-1-1zm-12 0c-.553 0-1 .446-1 1s.447 1 1 1 1-.448 1-1-.447-1-1-1zm8 0c-.553 0-1 .446-1 1s.447 1 1 1 1-.448 1-1-.447-1-1-1zm-28 0c-.553 0-1 .446-1 1s.447 1 1 1 1-.448 1-1-.447-1-1-1zm24 0c-.553 0-1 .446-1 1s.447 1 1 1 1-.448 1-1-.447-1-1-1zm-8 0c-.553 0-1 .446-1 1s.447 1 1 1 1-.448 1-1-.447-1-1-1zM47 37c.553 0 1-.448 1-1s-.447-1-1-1-1 .446-1 1 .447 1 1 1zm-4 0c.553 0 1-.448 1-1s-.447-1-1-1-1 .446-1 1 .447 1 1 1zM33 71c-.553 0-1 .446-1 1s.447 1 1 1 1-.448 1-1-.447-1-1-1zm6-34c.553 0 1-.448 1-1s-.447-1-1-1-1 .446-1 1 .447 1 1 1zm12 0c.553 0 1-.448 1-1s-.447-1-1-1-1 .446-1 1 .447 1 1 1zM29 71c-.553 0-1 .446-1 1s.447 1 1 1 1-.448 1-1-.447-1-1-1zm18-10c.553 0 1-.448 1-1s-.447-1-1-1-1 .446-1 1 .447 1 1 1zM35 37c.553 0 1-.448 1-1s-.447-1-1-1-1 .446-1 1 .447 1 1 1zm10 34c-.553 0-1 .446-1 1s.447 1 1 1 1-.448 1-1-.447-1-1-1zM25 47c-.553 0-1 .446-1 1s.447 1 1 1 1-.448 1-1-.447-1-1-1zm0-6c.553 0 1-.448 1-1s-.447-1-1-1-1 .446-1 1 .447 1 1 1zm0 14c-.553 0-1 .446-1 1s.447 1 1 1 1-.448 1-1-.447-1-1-1zm2-12c-.553 0-1 .446-1 1s.447 1 1 1 1-.448 1-1-.447-1-1-1zm4 10c.553 0 1-.448 1-1s-.447-1-1-1-1 .446-1 1 .447 1 1 1zm-4 0c.553 0 1-.448 1-1s-.447-1-1-1-1 .446-1 1 .447 1 1 1zm-2 12c.553 0 1-.448 1-1s-.447-1-1-1-1 .446-1 1 .447 1 1 1zm8-10c-.553 0-1 .446-1 1s.447 1 1 1 1-.448 1-1-.447-1-1-1zm-4 0c-.553 0-1 .446-1 1s.447 1 1 1 1-.448 1-1-.447-1-1-1zm0-8c-.553 0-1 .446-1 1s.447 1 1 1 1-.448 1-1-.447-1-1-1zM16 60c0-.554-.447-1-1-1s-1 .446-1 1 .447 1 1 1 1-.448 1-1zm7 1c.553 0 1-.448 1-1s-.447-1-1-1-1 .446-1 1 .447 1 1 1zm-6 2c-.553 0-1 .446-1 1s.447 1 1 1 1-.448 1-1-.447-1-1-1zm-4 0c-.232 0-.436.09-.605.223.32.574.67 1.127 1.047 1.662.328-.164.558-.494.558-.886 0-.554-.447-1-1-1zm6 4c-.553 0-1 .446-1 1s.447 1 1 1 1-.448 1-1-.447-1-1-1zm4 0c-.553 0-1 .446-1 1s.447 1 1 1 1-.448 1-1-.447-1-1-1zm-4-6c.553 0 1-.448 1-1s-.447-1-1-1-1 .446-1 1 .447 1 1 1zm3 3c0-.554-.447-1-1-1s-1 .446-1 1 .447 1 1 1 1-.448 1-1zm5-27c.553 0 1-.448 1-1 0-.414-.25-.767-.606-.92-.32.027-.636.068-.95.11-.262.182-.444.468-.444.81 0 .552.447 1 1 1zm8 24c.553 0 1-.448 1-1s-.447-1-1-1-1 .446-1 1 .447 1 1 1zm-2 4c.553 0 1-.448 1-1s-.447-1-1-1-1 .446-1 1 .447 1 1 1zm-2-4c.553 0 1-.448 1-1s-.447-1-1-1-1 .446-1 1 .447 1 1 1zm-2 4c.553 0 1-.448 1-1s-.447-1-1-1-1 .446-1 1 .447 1 1 1zm8 0c.553 0 1-.448 1-1s-.447-1-1-1-1 .446-1 1 .447 1 1 1zm4 0c.553 0 1-.448 1-1s-.447-1-1-1-1 .446-1 1 .447 1 1 1zm2-4c.553 0 1-.448 1-1s-.447-1-1-1-1 .446-1 1 .447 1 1 1zm-16 0c.553 0 1-.448 1-1s-.447-1-1-1-1 .446-1 1 .447 1 1 1zm12 0c.553 0 1-.448 1-1s-.447-1-1-1-1 .446-1 1 .447 1 1 1zm6 4c.553 0 1-.448 1-1s-.447-1-1-1-1 .446-1 1 .447 1 1 1zM31 43c-.553 0-1 .446-1 1s.447 1 1 1 1-.448 1-1-.447-1-1-1zm-8-6c.553 0 1-.448 1-1 0-.106-.03-.203-.06-.298-.64.176-1.264.382-1.875.622.136.39.497.675.935.675zm-6 4c.553 0 1-.448 1-1 0-.45-.302-.817-.71-.942-.437.343-.856.706-1.26 1.085.07.48.468.856.97.856zm12 0c.553 0 1-.448 1-1s-.447-1-1-1-1 .446-1 1 .447 1 1 1zm-8 30c-.112 0-.215.028-.315.062.407.2.817.39 1.24.56-.15-.365-.506-.623-.925-.623zm-5.792-3.96c.243.258.493.508.75.75-.083-.38-.37-.666-.75-.75zM25 71c-.553 0-1 .446-1 1 0 .116.03.225.066.33.54.145 1.09.27 1.648.366.176-.18.286-.425.286-.697 0-.554-.447-1-1-1zm2-4c-.553 0-1 .446-1 1s.447 1 1 1 1-.448 1-1-.447-1-1-1z"/><path fill="#E87970" d="M75 38.954H29.83c-8.19 0-14.83 6.7-14.83 14.964 0 .686.062 1.356.15 2.018.98-7.308 7.17-12.945 14.68-12.945H75v-4.036z"/><path fill="#E5A7A2" d="M91.438 48c0-1.347-1.092-2.44-2.438-2.44-1.348 0-2.44 1.093-2.44 2.44s1.093 2.438 2.44 2.438c1.346 0 2.438-1.09 2.438-2.44zM89 40c-.763 0-1.5.108-2.197.308v4.324c.63-.412 1.386-.653 2.197-.653 2.22 0 4.02 1.8 4.02 4.02s-1.8 4.02-4.02 4.02c-2.222 0-4.022-1.8-4.022-4.02l.006-.213-.006.005v-6.706c-2.38 1.387-3.98 3.963-3.98 6.914 0 4.418 3.584 8 8.003 8 4.42 0 8-3.582 8-8s-3.582-8-8-8zm2.438 8c0-1.347-1.092-2.44-2.438-2.44-1.348 0-2.44 1.093-2.44 2.44s1.093 2.438 2.44 2.438c1.346 0 2.438-1.09 2.438-2.44zM89 40c-.763 0-1.5.108-2.197.308v4.324c.63-.412 1.386-.653 2.197-.653 2.22 0 4.02 1.8 4.02 4.02s-1.8 4.02-4.02 4.02c-2.222 0-4.022-1.8-4.022-4.02l.006-.213-.006.005v-6.706c-2.38 1.387-3.98 3.963-3.98 6.914 0 4.418 3.584 8 8.003 8 4.42 0 8-3.582 8-8s-3.582-8-8-8z"/><path fill="#D25147" d="M30 44c-5.523 0-10 4.476-10 10 0 5.52 4.477 10 10 10s10-4.48 10-10c0-5.524-4.477-10-10-10zm25 0c-5.523 0-10 4.476-10 10 0 5.52 4.477 10 10 10s10-4.48 10-10c0-5.524-4.477-10-10-10zm-25 0c-5.523 0-10 4.476-10 10 0 5.52 4.477 10 10 10s10-4.48 10-10c0-5.524-4.477-10-10-10zm25 0c-5.523 0-10 4.476-10 10 0 5.52 4.477 10 10 10s10-4.48 10-10c0-5.524-4.477-10-10-10z"/><path fill="#D7776F" d="M84 60h10c.553 0 1 .446 1 1v1c0 .552-.447 1-1 1H84c-.553 0-1-.448-1-1v-1c0-.554.447-1 1-1z"/><g fill="#D37169"><circle cx="37" cy="39.999" r="1"/><path d="M26.178 43.462c.448-.115.903-.208 1.366-.28-.16-.106-.338-.183-.544-.183-.35 0-.643.19-.822.462zM25 41c.553 0 1-.448 1-1 0-.18-.06-.34-.143-.486-.625.175-1.24.377-1.828.63.072.48.47.855.97.855z"/><circle cx="33" cy="39.999" r="1"/><circle cx="29" cy="39.999" r="1"/><path d="M17 49c.553 0 1-.448 1-1s-.447-1-1-1c-.123 0-.237.028-.346.07-.213.416-.408.844-.583 1.283.144.376.503.646.93.646zm7-5c0-.554-.447-1-1-1s-1 .446-1 1c0 .406.245.753.594.91.44-.25.894-.477 1.36-.68L24 44zm-5 1c.553 0 1-.448 1-1 0-.356-.195-.653-.474-.83-.463.45-.896.932-1.297 1.44.182.232.453.39.77.39zm-3 7c0-.455-.308-.822-.722-.945-.12.63-.192 1.278-.232 1.935.53-.026.954-.455.954-.99z"/><circle cx="73" cy="39.999" r="1"/><circle cx="65" cy="39.999" r="1"/><circle cx="61" cy="39.999" r="1"/><circle cx="69" cy="39.999" r="1"/><circle cx="57" cy="39.999" r="1"/><circle cx="45" cy="39.999" r="1"/><circle cx="53" cy="39.999" r="1"/><circle cx="41" cy="39.999" r="1"/><circle cx="49" cy="39.999" r="1"/></g><g fill="#B4453C"><path d="M26 72c0-.554-.447-1-1-1s-1 .446-1 1c0 .116.03.225.066.33h.004c.538.145 1.083.268 1.64.365h.004c.176-.18.286-.424.286-.696z"/><circle cx="35" cy="67.999" r="1"/><circle cx="31" cy="67.999" r="1"/><circle cx="39" cy="67.999" r="1"/><path d="M15 61l.15-.03c-.38-.41-.744-.836-1.09-1.277-.03.098-.06.198-.06.306 0 .552.447 1 1 1zm-4.795-9.574c-.045.32-.092.644-.123.97.112.26.332.46.603.55-.146-.54-.268-1.093-.366-1.652l-.115.132zM12 60c0-.554-.447-1-1-1-.105 0-.202.028-.297.06.176.637.38 1.26.62 1.867l.002.007c.39-.136.675-.497.675-.935z"/><circle cx="47" cy="67.999" r="1"/><circle cx="67" cy="67.999" r="1"/><circle cx="63" cy="67.999" r="1"/><circle cx="59" cy="67.999" r="1"/><circle cx="71" cy="67.999" r="1"/><circle cx="17" cy="63.999" r="1"/><circle cx="43" cy="67.999" r="1"/><circle cx="51" cy="67.999" r="1"/><circle cx="55" cy="67.999" r="1"/><path d="M12.395 63.223c.32.574.67 1.127 1.047 1.662.328-.164.558-.494.558-.886 0-.554-.447-1-1-1-.232 0-.436.09-.605.223z"/><circle cx="53" cy="71.999" r="1"/><circle cx="57" cy="71.999" r="1"/><circle cx="49" cy="71.999" r="1"/><circle cx="61" cy="71.999" r="1"/><circle cx="65" cy="71.999" r="1"/><circle cx="73" cy="71.999" r="1"/><circle cx="45" cy="71.999" r="1"/><circle cx="69" cy="71.999" r="1"/><circle cx="37" cy="71.999" r="1"/><path d="M15.958 67.79c-.083-.38-.37-.666-.75-.75.243.258.493.508.75.75z"/><circle cx="23" cy="67.999" r="1"/><circle cx="27" cy="67.999" r="1"/><path d="M21 71c-.112 0-.215.028-.315.062.406.2.816.39 1.238.56C21.776 71.258 21.42 71 21 71z"/><circle cx="19" cy="67.999" r="1"/><circle cx="29" cy="71.999" r="1"/><circle cx="41" cy="71.999" r="1"/><circle cx="33" cy="71.999" r="1"/></g><g fill="#BA483E"><path d="M59 45l.238-.05c-.348-.162-.704-.308-1.07-.43.176.28.475.48.832.48zm5 11c0 .396.235.732.57.894.184-.606.313-1.235.38-1.884-.528.027-.95.455-.95.99z"/><circle cx="63" cy="51.999" r="1"/><path d="M55 45c.535 0 .963-.423.99-.95-.326-.033-.656-.05-.99-.05s-.664.017-.99.05c.027.527.455.95.99.95z"/><circle cx="61" cy="55.999" r="1"/><circle cx="35" cy="59.999" r="1"/><circle cx="59" cy="51.999" r="1"/><circle cx="35" cy="51.999" r="1"/><path d="M51 45c.357 0 .657-.2.834-.48-.368.122-.725.268-1.072.43L51 45z"/><circle cx="33" cy="55.999" r="1"/><path d="M38 52c0 .552.447 1 1 1 .38 0 .702-.222.87-.535-.065-.425-.153-.84-.27-1.245-.17-.13-.37-.22-.6-.22-.553 0-1 .446-1 1z"/><circle cx="33" cy="47.999" r="1"/><circle cx="51" cy="59.999" r="1"/><circle cx="49" cy="47.999" r="1"/><circle cx="59" cy="59.999" r="1"/><circle cx="47" cy="51.999" r="1"/><circle cx="49" cy="55.999" r="1"/><circle cx="53" cy="55.999" r="1"/><circle cx="51" cy="51.999" r="1"/><circle cx="57" cy="47.999" r="1"/><circle cx="57" cy="55.999" r="1"/><circle cx="55" cy="51.999" r="1"/><circle cx="55" cy="59.999" r="1"/><circle cx="53" cy="47.999" r="1"/><circle cx="61" cy="47.999" r="1"/><path d="M48 60c0-.554-.447-1-1-1-.204 0-.383.075-.542.18.343.563.738 1.09 1.18 1.572.217-.184.362-.447.362-.753zm-9.995-.025c.213-.285.412-.58.594-.89-.346.152-.585.49-.595.89zM46 56c0-.535-.42-.963-.95-.99.066.648.196 1.277.38 1.884.335-.162.57-.498.57-.895zm-13 7c-.478 0-.858.34-.958.79.572-.12 1.123-.293 1.654-.505-.18-.176-.424-.286-.696-.286z"/><circle cx="31" cy="59.999" r="1"/><circle cx="29" cy="55.999" r="1"/><circle cx="37" cy="55.999" r="1"/><path d="M53 63c-.397 0-.733.234-.895.57.606.183 1.235.312 1.885.378-.028-.527-.456-.95-.99-.95zm-24 0c-.483 0-.868.35-.96.804.634.127 1.29.195 1.96.195 0-.554-.447-1-1-1zm2-18c.483 0 .868-.35.96-.806C31.328 44.068 30.67 44 30 44c0 .552.447 1 1 1zm26 18c-.534 0-.962.42-.99.948.65-.065 1.278-.195 1.885-.38-.162-.334-.498-.57-.895-.57zm-33-3c0-.554-.447-1-1-1-.548 0-.99.44-.997.984.258.344.532.674.83.98L23 61c.553 0 1-.446 1-1zm39-1c-.553 0-1 .446-1 1 0 .305.145.568.36.752.443-.483.84-1.01 1.18-1.572-.157-.105-.336-.18-.54-.18z"/><circle cx="29" cy="47.999" r="1"/><circle cx="23" cy="51.999" r="1"/><circle cx="25" cy="55.999" r="1"/><circle cx="31" cy="51.999" r="1"/><path d="M36 48c0 .552.447 1 1 1 .548 0 .99-.44.997-.987-.257-.344-.532-.673-.83-.98L36.998 47c-.553 0-1 .446-1 1z"/><circle cx="27" cy="59.999" r="1"/><path d="M27 45c.478 0 .86-.343.958-.79-.572.118-1.123.29-1.655.503.18.176.425.286.697.286zm-5.005 3.023c-.213.285-.412.582-.594.89.346-.152.585-.49.595-.89z"/><circle cx="27" cy="51.999" r="1"/><path d="M22 56c0-.554-.447-1-1-1-.38 0-.702.22-.87.533.065.425.153.84.27 1.245.17.13.37.22.6.22.553 0 1-.446 1-1z"/><circle cx="25" cy="47.999" r="1"/></g><path fill="#BF392B" d="M75 34c.553 0 1 .446 1 1v38c0 .552-.447 1-1 1s-1-.448-1-1V35c0-.554.447-1 1-1z"/><path fill="#B6463D" d="M97.03 67H76v6h18.393c1.002-1.933 1.89-3.933 2.638-6z"/><path fill="#E5A7A2" d="M91.438 48c0-1.347-1.092-2.44-2.438-2.44-1.348 0-2.44 1.093-2.44 2.44s1.093 2.438 2.44 2.438c1.346 0 2.438-1.09 2.438-2.44zM89 40c-.763 0-1.5.108-2.197.308v4.324c.63-.412 1.386-.653 2.197-.653 2.22 0 4.02 1.8 4.02 4.02s-1.8 4.02-4.02 4.02c-2.222 0-4.022-1.8-4.022-4.02l.006-.213-.006.005v-6.706c-2.38 1.387-3.98 3.963-3.98 6.914 0 4.418 3.584 8 8.003 8 4.42 0 8-3.582 8-8s-3.582-8-8-8z"/><path fill="#D59691" d="M90.002 54C85.582 54 82 50.416 82 46c0-.887.16-1.732.426-2.53C81.536 44.76 81 46.314 81 48c0 4.417 3.583 8 8.002 8 3.527 0 6.516-2.287 7.58-5.456C95.137 52.63 92.73 54 90 54z"/></svg>