<svg xmlns="http://www.w3.org/2000/svg" width="100" height="100" viewBox="0 0 100 100"><path fill="#EFC75E" d="M50 0c27.613 0 50 22.386 50 50s-22.387 50-50 50C22.386 100 0 77.614 0 50S22.386 0 50 0z"/><path d="M77 55.006c-11.598 0-21 9.4-21 20.997 0 9.16 5.877 16.93 14.06 19.798 1.924-.843 3.787-1.8 5.576-2.872-8.743-.696-15.624-8-15.624-16.925 0-9.386 7.605-16.994 16.988-16.994 8.707 0 15.875 6.555 16.863 15 1.005-1.832 1.89-3.738 2.662-5.7C93.453 60.523 85.88 55.006 77 55.006zm-74 0c-.928 0-1.834.08-2.73.197.14 1.337.34 2.653.583 3.956.705-.09 1.418-.15 2.148-.15 9.384 0 16.99 7.607 16.99 16.993 0 4.09-1.445 7.842-3.853 10.774.982.905 2.006 1.767 3.06 2.592 3-3.633 4.803-8.29 4.803-13.367 0-11.597-9.402-20.997-21-20.997z" fill="#EDEDED"/><path fill="#E2574C" d="M68.71 43.612l-4.274-14.05s-.86-1.822-3.314-.312L64.104 39h-37.58l-3.115-8.516-2.818 1.03 2.717 7.427L4.84 71.48c.912 1.912 1.95 3.75 3.087 5.52H35v-3H6.86l17.8-31.363 10.932 29.878 2.816-1.03L27.622 42h37.4l.485 1.593L41.864 71.02l2.27 1.96 22.41-25.997c4.147 13.553 8.957 29.167 8.957 29.167.246.502.752.85 1.343.85.796 0 1.438-.626 1.49-1.415l-9.43-31.337-.192-.636z"/><path fill="#324D5B" d="M77 71c-2.762 0-5 2.238-5 5s2.238 5 5 5 5-2.238 5-5-2.238-5-5-5zm0 8c-1.657 0-3-1.343-3-3 0-1.656 1.343-3 3-3s3 1.344 3 3c0 1.657-1.343 3-3 3zm0-8c-2.762 0-5 2.238-5 5s2.238 5 5 5 5-2.238 5-5-2.238-5-5-5zm0 8c-1.657 0-3-1.343-3-3 0-1.656 1.343-3 3-3s3 1.344 3 3c0 1.657-1.343 3-3 3zm-37-9c-3.313 0-6 2.688-6 6 0 3.314 2.687 6 6 6s6-2.686 6-6c0-3.312-2.687-6-6-6zm0 9c-1.657 0-3-1.343-3-3 0-1.656 1.343-3 3-3s3 1.344 3 3c0 1.657-1.343 3-3 3zm0-9c-3.313 0-6 2.688-6 6 0 3.314 2.687 6 6 6s6-2.686 6-6c0-3.312-2.687-6-6-6zm0 9c-1.657 0-3-1.343-3-3 0-1.656 1.343-3 3-3s3 1.344 3 3c0 1.657-1.343 3-3 3zm31-55.5c0-3.59-2.91-6.5-6.5-6.5l-.874.013L63.5 17h-10c-.828 0-1.5.672-1.5 1.5s.672 1.5 1.5 1.5h1.25l-.04.098c.255-.06.52-.098.79-.098h9c1.934 0 3.5 1.567 3.5 3.5 0 1.934-1.566 3.5-3.5 3.5h-1.936l.008.05C61.674 27.243 61 28.042 61 29c0 1.105.896 2 2 2 .66 0 4.025-1.312 4.97-2.01C69.79 27.837 71 25.81 71 23.5z"/><path fill="#324C5A" d="M23.086 34.262l-1.218.386c-.758.24-1.503.36-2.22.36-4.95 0-8.097-3.92-8.438-4.482-.258-.42-.268-1.35-.018-1.78.265-.46.774-.74 1.33-.74h19.99c.767 0 1.412.532 1.502 1.245.1.79-.476 1.79-1.118 1.948-.345.087-2.336-.143-5.956 1.28l-1.136.47-2.718 1.314z"/><path fill="#2D4552" d="M28.94 31.478l-1.136.47-2.72 1.314-1.217.386c-.758.24-1.503.36-2.22.36-4.95 0-8.097-3.92-8.438-4.482-.217-.353-.248-1.046-.11-1.52h-.578c-.557 0-1.066.28-1.33.74-.25.43-.24 1.358.017 1.78.34.56 3.488 4.48 8.438 4.48.716 0 1.46-.12 2.22-.36l1.217-.385 2.72-1.31 1.135-.472c3.62-1.423 5.61-1.193 5.956-1.28.375-.093.724-.476.933-.933-.985.077-2.615.318-4.89 1.213z"/><path d="M77 54.006c-12.15 0-22 9.85-22 21.997 0 9.21 5.663 17.093 13.694 20.37.92-.37 1.826-.76 2.717-1.184-8.314-2.422-14.396-10.088-14.396-19.187C57.014 64.96 65.96 56.01 77 56.01c8.837 0 16.32 5.74 18.96 13.694.39-.905.753-1.825 1.09-2.758-3.454-7.63-11.13-12.94-20.05-12.94zm-74 0c-.953 0-1.89.067-2.812.186.056.673.126 1.342.208 2.007.854-.113 1.72-.19 2.604-.19 11.04 0 19.988 8.95 19.988 19.994 0 4.842-1.722 9.28-4.585 12.74.52.424 1.044.84 1.58 1.243C23.118 86.187 25 81.314 25 76.003c0-12.15-9.85-21.997-22-21.997z" fill="#324D5B"/></svg>