<svg xmlns="http://www.w3.org/2000/svg" width="100" height="100" viewBox="0 0 100 100"><path fill="#4681A0" d="M50 0c27.614 0 50 22.387 50 50 0 27.614-22.386 50-50 50S0 77.614 0 50C0 22.387 22.386 0 50 0z"/><path fill="#3F7490" d="M50 100c13.3 0 25.374-5.2 34.33-13.67C92.8 77.375 98 65.3 98 52c0-11.256-3.722-21.643-10-30H23c-2.762 0-5 2.238-5 5v61.413C26.67 95.645 37.826 100 50 100z"/><path fill="#fff" d="M25 20c-2.762 0-5 2.238-5 5v65c8.357 6.278 18.743 10 30 10 27.614 0 50-22.386 50-50 0-11.256-3.722-21.643-10-30H25z"/><path fill="#F3F3F3" d="M100 50c0-3.78-.434-7.46-1.23-11H20v51c8.357 6.278 18.743 10 30 10 27.614 0 50-22.386 50-50z"/><path fill="#E2574C" d="M29.5 26c1.934 0 3.5 1.567 3.5 3.5 0 1.934-1.566 3.5-3.5 3.5-1.933 0-3.5-1.566-3.5-3.5 0-1.933 1.567-3.5 3.5-3.5z"/><path fill="#EFC75E" d="M39.5 26c1.934 0 3.5 1.567 3.5 3.5 0 1.934-1.566 3.5-3.5 3.5-1.933 0-3.5-1.566-3.5-3.5 0-1.933 1.567-3.5 3.5-3.5z"/><path fill="#3DB39E" d="M49.5 26c1.934 0 3.5 1.567 3.5 3.5 0 1.934-1.566 3.5-3.5 3.5-1.933 0-3.5-1.566-3.5-3.5 0-1.933 1.567-3.5 3.5-3.5z"/><path fill="#E4E7E7" d="M93.87 26H60c-1.104 0-2 .896-2 2v3c0 1.105.896 2 2 2h37.03c-.877-2.426-1.935-4.765-3.16-7z"/><g fill="#DADADA"><path d="M30 84h13c.553 0 1-.447 1-1s-.447-1-1-1H30c-.553 0-1 .447-1 1s.447 1 1 1zm47 1c-.553 0-1 .447-1 1v1c0 .553.447 1 1 1h5.477c1.115-.954 2.19-1.953 3.218-3H77zm-47 3h16c.553 0 1-.447 1-1s-.447-1-1-1H30c-.553 0-1 .447-1 1s.447 1 1 1zm-2-39v13c0 1.105.896 2 2 2h68c1.293-4.444 2-9.14 2-14 0-1.008-.04-2.007-.098-3H30c-1.104 0-2 .896-2 2z"/><circle cx="83.5" cy="76.5" r="4.5"/><path d="M56 86v1c0 .553.447 1 1 1h13c.553 0 1-.447 1-1v-1c0-.553-.447-1-1-1H57c-.553 0-1 .447-1 1zm-7-8H30c-.553 0-1 .447-1 1s.447 1 1 1h19c.553 0 1-.447 1-1s-.447-1-1-1z"/><circle cx="63.5" cy="76.5" r="4.5"/><path d="M30 76h19c.553 0 1-.447 1-1v-2c0-.553-.447-1-1-1H30c-.553 0-1 .447-1 1v2c0 .553.447 1 1 1z"/></g></svg>