<svg xmlns="http://www.w3.org/2000/svg" width="100" height="100" viewBox="0 0 100 100"><circle fill="#324D5B" cx="50" cy="50" r="50"/><path fill="#EFC75E" d="M73.512 42.903C68.078 31.785 56.972 28.01 50.014 28.01c-6.96 0-18.09 3.774-23.524 14.89-5.435 11.12-1.058 21.43 4.245 28.302 5.3 6.872 5.863 9.905 6.195 11.59.33 1.685-.73 4.312 1.294 6.13 2.026 1.82 11.79 2.09 11.79 2.09s9.734-.27 11.76-2.09c2.025-1.817.947-4.446 1.28-6.13.33-1.685.884-4.718 6.187-11.59s9.705-17.18 4.272-28.3z"/><path fill="#DDB857" d="M58.794 51.09c-.286-.054-.58-.09-.88-.09l-.09.01-.824.083c-2.3.438-4.04 2.482-4.04 4.95v2.964h-7.927v-2.965c0-2.465-1.738-4.51-4.033-4.95l-.83-.083-.09-.01c-.305 0-.598.036-.887.09C36.818 51.477 35 53.52 35 56.006c0 2.762 2.238 5 5 5h3V91h2V61.006h8V91h2V61.006h3c2.762 0 5-2.238 5-5 0-2.488-1.824-4.536-4.206-4.918zM37 56.006c0-1.626 1.297-2.942 2.912-2.99h.168c1.642 0 2.973 2.258 2.973 5.043l.01.947H40c-1.656 0-3-1.344-3-3zm21 3h-3.068l.01-.947c0-2.785 1.33-5.043 2.973-5.043h.174c1.613.047 2.91 1.365 2.91 2.99 0 1.656-1.343 3-3 3z"/><path fill="#5A6F7A" d="M50 8c-1.104 0-2 .895-2 2v8c0 1.103.896 2 2 2s2-.897 2-2v-8c0-1.105-.896-2-2-2zm17.774 4.138c-1.012-.408-2.17.06-2.59 1.05l-3.032 7.146c-.42.987.062 2.118 1.073 2.526s2.17-.06 2.59-1.048l3.032-7.147c.42-.986-.06-2.118-1.073-2.527zm-32.96 1.05c-.418-.99-1.577-1.458-2.59-1.05-1.01.41-1.49 1.54-1.072 2.527l3.032 7.147c.42.987 1.578 1.456 2.59 1.048s1.492-1.54 1.073-2.526l-3.032-7.147zM81.44 22.53c-.73-.728-1.91-.728-2.637 0l-5.272 5.272c-.728.728-.728 1.908 0 2.637.73.727 1.91.727 2.638 0l5.27-5.273c.73-.73.73-1.908 0-2.637zm-60.244 0c-.728-.728-1.908-.728-2.636 0-.73.73-.73 1.908 0 2.637l5.27 5.272c.73.727 1.91.727 2.638 0 .73-.73.73-1.91 0-2.638l-5.272-5.272z"/><path fill="#D7B354" d="M41.224 88.923c-2.025-1.818-.963-4.446-1.294-6.13-.332-1.686-.895-4.72-6.195-11.59-5.303-6.874-9.68-17.183-4.245-28.302 5.06-10.348 15.053-14.33 22.024-14.83-.517-.036-1.02-.06-1.5-.06-6.96 0-18.09 3.774-23.524 14.89-5.435 11.12-1.058 21.43 4.245 28.302 5.3 6.872 5.863 9.905 6.195 11.59.33 1.685-.73 4.312 1.294 6.13 2.026 1.82 11.79 2.09 11.79 2.09s.586-.016 1.498-.066c-2.82-.16-8.758-.65-10.288-2.023z"/><path fill="#fff" d="M59.794 51.09c-.286-.054-.58-.09-.88-.09l-.09.01-.824.083c-2.3.438-4.04 2.482-4.04 4.95v2.964h-7.927v-2.965c0-2.465-1.738-4.51-4.033-4.95l-.83-.083-.09-.01c-.305 0-.598.036-.887.09C37.818 51.477 36 53.52 36 56.006c0 2.762 2.238 5 5 5h3V91h2V61.006h8V91h2V61.006h3c2.762 0 5-2.238 5-5 0-2.488-1.824-4.536-4.206-4.918zM38 56.006c0-1.626 1.297-2.942 2.912-2.99h.168c1.642 0 2.973 2.258 2.973 5.043l.01.947H41c-1.656 0-3-1.344-3-3zm21 3h-3.068l.01-.947c0-2.785 1.33-5.043 2.973-5.043h.174c1.613.047 2.91 1.365 2.91 2.99 0 1.656-1.343 3-3 3z"/><path fill="#EFEFEF" d="M61.772 87.922c-2.024 1.82-11.76 2.09-11.76 2.09s-9.763-.27-11.79-2.09c-.643-.577-.973-1.237-1.137-1.923H37v12.28c4.146 1.115 8.502 1.72 13 1.72s8.854-.605 13-1.72V86h-.093c-.162.685-.49 1.345-1.135 1.922z"/></svg>