<svg xmlns="http://www.w3.org/2000/svg" width="100" height="100" viewBox="0 0 100 100"><path fill="#3DB39E" d="M50 0c27.614 0 50 22.386 50 50s-22.386 50-50 50S0 77.614 0 50 22.386 0 50 0z"/><path fill="#37A18E" d="M63 58c6.627 0 12 5.373 12 12s-5.373 12-12 12-12-5.373-12-12 5.373-12 12-12zm10-28c6.627 0 12 5.373 12 12s-5.373 12-12 12-12-5.373-12-12 5.373-12 12-12z"/><path fill="#79C9BB" d="M52 20H22c-1.104 0-2 .896-2 2v50c0 1.104.896 2 2 2h30c1.104 0 2-.896 2-2V22c0-1.104-.896-2-2-2zm0 51c0 .553-.447 1-1 1H23c-.553 0-1-.447-1-1V23c0-.553.447-1 1-1h28c.553 0 1 .447 1 1v48z"/><path fill="#EEF3F3" d="M27 25h30c1.104 0 2 .896 2 2v50c0 1.104-.896 2-2 2H27c-1.104 0-2-.896-2-2V27c0-1.104.896-2 2-2z"/><path fill="#37A18E" d="M57 61c6.627 0 12 5.373 12 12s-5.373 12-12 12-12-5.373-12-12 5.373-12 12-12z"/><path fill="#D7DBDB" d="M57 61c-6.627 0-12 5.373-12 12 0 2.188.595 4.233 1.62 6H57c1.104 0 2-.896 2-2V61.18c-.65-.11-1.317-.18-2-.18z"/><path fill="#324D5B" d="M45.162 50.16c-.332 0-.678.06-1.027.168.475-.824.64-1.426.64-2.27 0-1.68-1.228-3.06-2.774-3.06-1.528 0-2.77 1.364-2.77 3.06 0 .863.324 1.486.815 2.328-.41-.143-.817-.227-1.206-.227-1.558 0-2.84 1.276-2.84 2.892 0 1.597 1.268 2.893 2.84 2.893.935 0 1.98-.488 2.937-1.115-.72 2.11-1.508 3.167-2.938 3.172h6.323c-1.43-.005-2.217-1.062-2.938-3.172.957.627 2 1.115 2.938 1.115 1.57 0 2.838-1.296 2.838-2.893 0-1.614-1.28-2.892-2.838-2.892zm-12.11-20.358c-.162-.46-.517-.797-1.026-.797-.488 0-.863.355-1.025.797l-1.93 5.22c-.018.048-.065.162-.065.316 0 .384.326.672.71.672.394 0 .595-.21.69-.51l.288-.892h2.667l.288.9c.097.29.298.5.7.5.355 0 .662-.26.662-.633 0-.067-.02-.2-.076-.354l-1.88-5.218zm-1.947 3.483l.91-2.783h.02l.893 2.783h-1.823zm23.83 39.736l-1.882-5.22c-.163-.46-.518-.795-1.027-.795-.488 0-.863.354-1.025.796l-1.93 5.22c-.018.048-.065.163-.065.317 0 .384.326.672.71.672.394 0 .595-.212.69-.51l.288-.893h2.667l.288.9c.097.29.298.5.7.5.355 0 .662-.26.662-.633 0-.065-.02-.2-.076-.353zm-3.83-1.735l.91-2.783h.02l.893 2.783h-1.823z"/><path fill="#EFC75E" d="M74 29c6.627 0 12 5.373 12 12s-5.373 12-12 12-12-5.373-12-12 5.373-12 12-12z"/><path fill="#C6A243" d="M74 35c3.313 0 6 2.687 6 6 0 3.314-2.687 6-6 6s-6-2.686-6-6c0-3.313 2.687-6 6-6z"/><path fill="#EFC75E" d="M58 60c6.627 0 12 5.373 12 12s-5.373 12-12 12-12-5.373-12-12 5.373-12 12-12z"/><path fill="#D4B052" d="M58 60c-.632 0-1.248.063-1.854.157C53.038 62.327 51 65.923 51 70c0 6.627 5.373 12 12 12 .632 0 1.248-.063 1.854-.157C67.962 79.673 70 76.077 70 72c0-6.627-5.373-12-12-12z"/><path d="M51.637 78.364c-.78-.78-2.048-.78-2.83 0l-.58.58c.78 1.095 1.734 2.05 2.828 2.83l.582-.582c.78-.78.78-2.046 0-2.828zM49 72c0-1.104-.896-2-2-2h-.82c-.11.65-.18 1.317-.18 2s.07 1.35.18 2H47c1.104 0 2-.896 2-2zm11 11.82V83c0-1.104-.896-2-2-2s-2 .896-2 2v.82c.65.11 1.317.18 2 .18s1.35-.07 2-.18zM48.808 65.637c.78.78 2.048.78 2.83 0 .78-.78.78-2.048 0-2.828l-.583-.583c-1.094.778-2.05 1.734-2.83 2.828l.583.582z" fill="#EEF3F3"/><path fill="#C6A243" d="M58 66c3.313 0 6 2.687 6 6s-2.687 6-6 6-6-2.687-6-6 2.687-6 6-6z"/><path fill="#EFC75E" d="M64 57c6.627 0 12 5.373 12 12s-5.373 12-12 12-12-5.373-12-12 5.373-12 12-12z"/><path fill="#C6A243" d="M64 63c3.313 0 6 2.687 6 6 0 3.314-2.687 6-6 6s-6-2.686-6-6c0-3.313 2.687-6 6-6z"/><path fill="#EEF3F3" d="M74 36.748c2.35 0 4.252 1.904 4.252 4.252 0 2.35-1.903 4.252-4.252 4.252S69.748 43.35 69.748 41c0-2.348 1.903-4.252 4.252-4.252zm-10 28c2.348 0 4.252 1.904 4.252 4.252 0 2.35-1.904 4.252-4.252 4.252S59.748 71.35 59.748 69c0-2.348 1.904-4.252 4.252-4.252zM67.637 47.364c-.78-.78-2.048-.78-2.83 0l-.58.58c.778 1.095 1.734 2.05 2.828 2.83l.582-.582c.78-.78.78-2.046 0-2.828zM65 41c0-1.104-.896-2-2-2h-.82c-.11.652-.18 1.317-.18 2s.07 1.348.18 2H63c1.104 0 2-.896 2-2zm18.192 6.364c-.78-.78-2.048-.78-2.83 0-.78.78-.78 2.048 0 2.828l.583.582c1.094-.78 2.05-1.735 2.828-2.83l-.58-.58zM83 41c0 1.104.896 2 2 2h.82c.11-.652.18-1.317.18-2s-.07-1.348-.18-2H85c-1.104 0-2 .896-2 2zm-9-9c1.104 0 2-.896 2-2v-.82c-.65-.11-1.317-.18-2-.18s-1.35.07-2 .18V30c0 1.104.896 2 2 2zm2 20.82V52c0-1.104-.896-2-2-2s-2 .896-2 2v.82c.65.11 1.317.18 2 .18s1.35-.07 2-.18zM64.808 34.637c.78.78 2.048.78 2.83 0 .78-.78.78-2.048 0-2.83l-.583-.58c-1.094.778-2.05 1.734-2.83 2.828l.583.582zm15.555 0c.78.78 2.048.78 2.83 0l.58-.582c-.778-1.094-1.734-2.05-2.828-2.83l-.582.583c-.78.78-.78 2.047 0 2.83zM55 69c0-1.104-.896-2-2-2h-.82c-.11.65-.18 1.317-.18 2s.07 1.35.18 2H53c1.104 0 2-.896 2-2zm2.637 6.364c-.78-.78-2.048-.78-2.83 0l-.58.58c.778 1.095 1.734 2.05 2.828 2.83l.582-.582c.78-.78.78-2.046 0-2.828zm15.555 0c-.78-.78-2.048-.78-2.83 0-.78.78-.78 2.047 0 2.828l.583.582c1.094-.78 2.05-1.735 2.828-2.83l-.58-.58zM73 69c0 1.104.896 2 2 2h.82c.11-.65.18-1.317.18-2s-.07-1.35-.18-2H75c-1.104 0-2 .896-2 2zm-18.192-6.363c.78.78 2.048.78 2.83 0 .78-.78.78-2.048 0-2.828l-.583-.583c-1.094.778-2.05 1.734-2.83 2.828l.583.582zM66 80.82V80c0-1.104-.896-2-2-2s-2 .896-2 2v.82c.65.11 1.317.18 2 .18s1.35-.07 2-.18zM64 60c1.104 0 2-.896 2-2v-.82c-.65-.11-1.317-.18-2-.18s-1.35.07-2 .18V58c0 1.104.896 2 2 2zm6.363 2.637c.78.78 2.048.78 2.83 0l.58-.582c-.778-1.094-1.734-2.05-2.828-2.828l-.582.582c-.78.78-.78 2.045 0 2.827z"/></svg>