<svg xmlns="http://www.w3.org/2000/svg" width="100" height="100" viewBox="0 0 100 100"><circle fill="#4ABEE5" cx="50" cy="50" r="50"/><path fill="#2EA9D3" d="M2.63 65.998c6.67 19.753 25.33 33.983 47.33 34h.08c21.998-.017 40.66-14.247 47.33-34H2.63z"/><path d="M76.605 45.236L68 39.873V24.498c0-.828-.672-1.5-1.5-1.5s-1.5.672-1.5 1.5v13.505l-.016-.01v4.877l.016.01v6.618c0 .828.672 1.5 1.5 1.5s1.5-.672 1.5-1.5V44.59c1.495.87 2.868 1.688 4 2.373v10.535c0 .828.672 1.5 1.5 1.5s1.5-.672 1.5-1.5v-8.692l.098.062c1.11.376 2.35-.13 2.766-1.135.415-1.004-.147-2.12-1.26-2.497zM33.5 22.998c-.828 0-1.5.672-1.5 1.5v15.357l-8.635 5.38c-1.11.377-1.674 1.494-1.258 2.497.417 1.004 1.654 1.51 2.766 1.135l.127-.08v8.71c0 .83.672 1.5 1.5 1.5s1.5-.67 1.5-1.5v-10.57c1.134-.69 2.506-1.514 4-2.384v4.955c0 .828.672 1.5 1.5 1.5s1.5-.672 1.5-1.5v-25c0-.828-.672-1.5-1.5-1.5z" fill="#fff"/><path fill="#EFEFEF" d="M68.753 53.88c.493.837.2 1.908-.657 2.392L37.64 78.752c-.85.487-1.93.197-2.42-.648-.488-.845-.197-1.926.65-2.412l30.438-22.455c.857-.483 1.952-.196 2.445.642z"/><path fill="#fff" d="M31.247 53.88c-.493.837-.2 1.908.656 2.392l30.43 22.48c.847.487 1.93.197 2.416-.648.487-.845.196-1.926-.65-2.412L33.688 53.236c-.855-.482-1.948-.195-2.44.643z"/><path fill="#EFC75E" d="M35 46.998h30L75.998 57.03l.006 1.964c0 .533-.51 1.004-1.016 1.004H25.025c-.483 0-1.017-.488-1.017-.988L24 56.998l11-10zm0-21h30v14H35v-14z"/><path fill="#E3BD59" d="M63 25.998v14h2v-14h-2zm-28 14h2v-14h-2v14z"/><path fill="#fff" d="M53.97 31.982c-.068-.205-.246-.355-.46-.39l-2.08-.317-.904-1.936c-.095-.205-.3-.335-.522-.335s-.427.13-.522.334l-.904 1.935-2.08.318c-.213.033-.39.184-.46.39-.07.206-.017.433.134.588l1.525 1.57-.354 2.178c-.037.22.056.438.236.566.1.07.215.105.33.105.097 0 .193-.024.28-.072l1.813-1.007 1.813 1.008c.088.048.184.07.28.07.116 0 .232-.034.332-.104.18-.128.272-.348.237-.566l-.354-2.178 1.525-1.57c.152-.154.204-.38.136-.588z"/><path fill="#E1BB58" d="M76.004 58.994l-.006-1.964-.035-.032H24l.01 2.012c0 .5.532.988 1.016.988H74.99c.504 0 1.014-.47 1.014-1.004z"/><path fill="#EBEBEB" d="M42.846 59.998h-5.9l4.062 3h5.9z"/><path fill="#DCDCDC" d="M58.982 62.998l4.065-3h-5.904l-4.067 3z"/></svg>