<svg xmlns="http://www.w3.org/2000/svg" width="100" height="100" viewBox="0 0 100 100"><path fill="#4681A0" d="M50 0C22.386 0 0 22.386 0 50c0 27.615 22.386 50 50 50 27.613 0 50-22.385 50-50 0-27.614-22.387-50-50-50z"/><path fill="#70A0BA" d="M71 21c1.104 0 2 .895 2 2v54c0 1.103-.896 2-2 2s-2-.897-2-2V23c0-1.105.896-2 2-2m-21 0c1.104 0 2 .895 2 2v54c0 1.103-.896 2-2 2s-2-.897-2-2V23c0-1.105.896-2 2-2m-21 0c1.104 0 2 .895 2 2v54c0 1.103-.896 2-2 2s-2-.897-2-2V23c0-1.105.896-2 2-2m42-2c-2.206 0-4 1.793-4 4v54c0 2.205 1.794 4 4 4s4-1.795 4-4V23c0-2.207-1.794-4-4-4zm-21 0c-2.206 0-4 1.793-4 4v54c0 2.205 1.794 4 4 4s4-1.795 4-4V23c0-2.207-1.794-4-4-4zm-21 0c-2.206 0-4 1.793-4 4v54c0 2.205 1.794 4 4 4s4-1.795 4-4V23c0-2.207-1.794-4-4-4z"/><path fill="#376B86" d="M50 21c-1.104 0-2 .895-2 2v54c0 1.103.896 2 2 2s2-.897 2-2V23c0-1.105-.896-2-2-2zm21 0c-1.104 0-2 .895-2 2v54c0 1.103.896 2 2 2s2-.897 2-2V23c0-1.105-.896-2-2-2zm-42 0c-1.104 0-2 .895-2 2v54c0 1.103.896 2 2 2s2-.897 2-2V23c0-1.105-.896-2-2-2z"/><path d="M50 21c-.174 0-.34.028-.5.07.86.223 1.5 1 1.5 1.93v54c0 .93-.64 1.705-1.5 1.928.16.042.326.07.5.07 1.104 0 2-.895 2-2V23c0-1.103-.896-2-2-2zm-21 0c-.174 0-.34.028-.5.07.86.223 1.5 1 1.5 1.93v54c0 .93-.64 1.705-1.5 1.928.16.042.326.07.5.07 1.104 0 2-.895 2-2V23c0-1.103-.896-2-2-2zm42 0c-.174 0-.34.028-.5.07.86.223 1.5 1 1.5 1.93v54c0 .93-.64 1.705-1.5 1.928.16.042.326.07.5.07 1.104 0 2-.895 2-2V23c0-1.103-.896-2-2-2z" fill="#316078"/><path fill="#3D708B" d="M34 33H24c-1.104 0-2 .895-2 2v12c0 1.103.896 2 2 2h10c1.104 0 2-.897 2-2V35c0-1.105-.896-2-2-2zm21 22H45c-1.104 0-2 .895-2 2v12c0 1.103.896 2 2 2h10c1.104 0 2-.897 2-2V57c0-1.105-.896-2-2-2zm21-22H66c-1.104 0-2 .895-2 2v12c0 1.103.896 2 2 2h10c1.104 0 2-.897 2-2V35c0-1.105-.896-2-2-2z"/><path d="M73 33h2v16h-2zm-6 0h2v16h-2zM46 55h2v16h-2zM25 33h2v16h-2zm6 0h2v16h-2zm21 22h2v16h-2z" fill="#5F889E"/><path d="M69 33h4v16h-4zm-42 0h4v16h-4zm21 22h4v16h-4z" fill="#2F5B72"/><path d="M72 33h1v16h-1zm-42 0h1v16h-1zm21 22h1v16h-1z" fill="#2A5266"/><path fill="#D4D4D4" d="M34 31H24c-1.104 0-2 .895-2 2v12c0 1.103.896 2 2 2h10c1.104 0 2-.897 2-2V33c0-1.105-.896-2-2-2zm21 22H45c-1.104 0-2 .895-2 2v12c0 1.103.896 2 2 2h10c1.104 0 2-.897 2-2V55c0-1.105-.896-2-2-2zm21-22H66c-1.104 0-2 .895-2 2v12c0 1.103.896 2 2 2h10c1.104 0 2-.897 2-2V33c0-1.105-.896-2-2-2z"/><path fill="#EDEDED" d="M34 30H24c-1.104 0-2 .895-2 2v11c0 1.103.896 2 2 2h10c1.104 0 2-.897 2-2V32c0-1.105-.896-2-2-2zm21 22H45c-1.104 0-2 .895-2 2v11c0 1.103.896 2 2 2h10c1.104 0 2-.897 2-2V54c0-1.105-.896-2-2-2zm21-22H66c-1.104 0-2 .895-2 2v11c0 1.103.896 2 2 2h10c1.104 0 2-.897 2-2V32c0-1.105-.896-2-2-2z"/><path fill="#C3C3C3" d="M32 36h-6c-.553 0-1 .447-1 1 0 .552.447 1 1 1h6c.553 0 1-.448 1-1 0-.553-.447-1-1-1zm0 4h-6c-.553 0-1 .446-1 1 0 .552.447 1 1 1h6c.553 0 1-.448 1-1 0-.554-.447-1-1-1zm21 18h-6c-.553 0-1 .445-1 1 0 .552.447 1 1 1h6c.553 0 1-.448 1-1 0-.555-.447-1-1-1zm0 4h-6c-.553 0-1 .445-1 1 0 .552.447 1 1 1h6c.553 0 1-.448 1-1 0-.555-.447-1-1-1zm15-24h6c.553 0 1-.448 1-1 0-.553-.447-1-1-1h-6c-.553 0-1 .447-1 1 0 .552.447 1 1 1zm6 2h-6c-.553 0-1 .446-1 1 0 .552.447 1 1 1h6c.553 0 1-.448 1-1 0-.554-.447-1-1-1z"/><path d="M34 30H24c-1.104 0-2 .895-2 2v2c0-1.105.896-2 2-2h10c1.104 0 2 .895 2 2v-2c0-1.105-.896-2-2-2zm21 22H45c-1.104 0-2 .895-2 2v2c0-1.105.896-2 2-2h10c1.104 0 2 .895 2 2v-2c0-1.105-.896-2-2-2zm21-22H66c-1.104 0-2 .895-2 2v2c0-1.105.896-2 2-2h10c1.104 0 2 .895 2 2v-2c0-1.105-.896-2-2-2z" fill="#fff"/></svg>