<svg xmlns="http://www.w3.org/2000/svg" width="100" height="100" viewBox="0 0 100 100"><path fill="#EDEDED" d="M50 0c27.614 0 50 22.385 50 50s-22.386 50-50 50S0 77.612 0 50 22.386 0 50 0z"/><path fill="#2B414D" d="M29 95.375C35.387 98.335 42.497 100 50 100c7.504 0 14.616-1.665 21.004-4.627v-5.366H29.027s-.02 3.462-.027 5.368z"/><path fill="#324D5B" d="M50 83.01c11.6 0 21.004 3.133 21.004 6.997 0 3.865-9.404 6.998-21.004 6.998s-21.004-3.133-21.004-6.998c0-3.864 9.404-6.997 21.004-6.997z"/><path fill="#EFC75E" d="M72.024 31.13c.002-3.063-.07-5.102-.07-5.102-10.426-.024-29.527-.015-43.946 0 0 0-.065 2.04-.052 5.105-9.98-1.582-20.962 11.63 5.616 29.69 4.272 7.002 10.104 12.49 10.104 12.49-.02.004.448.14 1.125.33.448 2.032 1.517 8.727-1.664 16.258-.09.113-.14.23-.14.348 0 .966 3.136 1.75 7.002 1.75S57 91.215 57 90.248c0-.12-.05-.238-.143-.353-3.223-7.547-2.115-14.25-1.66-16.266.672-.18 1.143-.31 1.15-.317 0 0 5.885-5.537 10.16-12.584 26.42-17.996 15.49-31.15 5.517-29.6zm-44.01 3.935c.128 5.013.5 11.2 1.474 16.078.26 1.3.663 2.605 1.167 3.898-14.49-13.376-10.36-20.58-2.64-19.975zM69.41 54.932c.484-1.257.874-2.525 1.126-3.788.975-4.88 1.33-11.068 1.443-16.082 7.682-.574 11.772 6.587-2.57 19.87z"/><path fill="#fff" d="M52.5 53H52V43h.5c.828 0 1.5-.673 1.5-1.5s-.672-1.5-1.5-1.5h-5c-.828 0-1.5.67-1.5 1.5s.672 1.5 1.5 1.5h.5v10h-.5c-.828 0-1.5.67-1.5 1.5s.672 1.5 1.5 1.5h5c.828 0 1.5-.673 1.5-1.5s-.672-1.5-1.5-1.5z"/><path fill="#DCB757" d="M44.873 73.992c.473 2.374 1.28 8.765-1.736 15.91-.09.112-.14.228-.14.347 0 .5.845.95 2.192 1.27 1.8-6.07 2.526-10.213.976-17.527h-1.293zm1.803-.678s-12.02-11.304-14.188-22.17c-1.97-9.877-1.48-25.116-1.48-25.116 7.594-.008 16.478-.014 24.717-.015-9.038 0-19.19.006-27.716.015 0 0-.492 15.24 1.478 25.115 2.168 10.867 14.188 22.17 14.188 22.17-.065.016 5.957 1.683 6.344 1.682h.02l1.396-.368c-1.9-.49-4.806-1.303-4.76-1.313z"/><path fill="#CFB061" d="M43.675 72.987s3.163.8 6.325.8c3.163 0 6.325-.8 6.325-.8.932 0 1.687.717 1.687 1.6 0 .884-1.598 1.6-2.53 1.6 0 0-2.73.8-5.468.8-2.745 0-5.496-.8-5.496-.8-.932 0-2.53-.716-2.53-1.6 0-.883.755-1.6 1.687-1.6z"/><path fill="#C7A13E" d="M50 23c12.153 0 22.006 1.34 22.006 2.993 0 1.654-9.853 2.995-22.006 2.995s-22.006-1.34-22.006-2.995C27.994 24.34 37.847 23 50 23z"/></svg>