<svg xmlns="http://www.w3.org/2000/svg" width="100" height="100" viewBox="0 0 100 100"><path fill="#3DB39E" d="M50 0c27.614 0 50 22.386 50 50s-22.386 50-50 50S0 77.614 0 50 22.386 0 50 0z"/><path d="M23.382 32.312l17.872 8.942 7.148-3.577-17.872-8.942zm37.53-.894l-17.87-8.942-7.15 3.577 17.872 8.94zm-32.17 16.095l7.15-3.577-17.872-8.942-7.15 3.577zm19.66-27.72l17.872 8.942 7.15-3.577-17.873-8.94zm7.013 79.91c3.457-.372 6.807-1.1 10.017-2.142L2.688 66.17c1.116 3.264 2.554 6.377 4.287 9.298l48.44 24.235zM3.723 60.03l7.148-3.575L.027 51.03c.052 2.554.294 5.06.715 7.51l2.983 1.49zm12.51-6.258l7.148-3.577-17.87-8.94-5.115 2.558c-.08.64-.147 1.286-.202 1.935l16.04 8.024z" fill="#E4E7E7"/><path fill="#349886" d="M60.383 71.93c5.98-3.357 13.493-1.588 14.434-.004.924 1.557-1.24 8.797-7.222 12.154-5.98 3.357-13.49 1.59-14.433.005-.777-1.312 1.24-8.797 7.22-12.154z"/><path fill="#E77944" d="M85.7 46.75c4.798-4.772 8.177-10.398 10.443-16.027C91.067 18.586 81.345 8.88 69.198 3.825c-5.68 2.262-11.357 5.638-16.177 10.43C37.33 29.86 37.42 55.252 40.946 58.758c4.264 4.24 29.06 3.596 44.754-12.01zm0 0c4.798-4.772 8.177-10.398 10.443-16.027C91.067 18.586 81.345 8.88 69.198 3.825c-5.68 2.262-11.357 5.638-16.177 10.43C37.33 29.86 37.42 55.252 40.946 58.758c4.264 4.24 29.06 3.596 44.754-12.01z"/><path fill="#CDCFCF" d="M58.588 38.535l18.98-18.955c.79-.787 2.066-.787 2.855 0 .788.787.788 2.062 0 2.85l-18.98 18.955c-.79.787-2.067.787-2.855 0s-.788-2.063 0-2.85z"/><path fill="#EFF1F1" d="M60.315 34.287c-.373-.373-.978-.373-1.35 0l-.677.676c-.373.373-.373.977 0 1.35l5.403 5.403c.374.373.98.373 1.352 0l.675-.675c.373-.372.373-.978 0-1.35l-5.402-5.403zm4.99-5.013c-.374-.373-.98-.373-1.355 0l-.68.675c-.373.372-.373.978 0 1.35l5.425 5.404c.375.373.98.373 1.356 0l.68-.675c.374-.375.374-.98 0-1.353l-5.425-5.403zm5.003-4.98c-.373-.374-.978-.374-1.35 0l-.677.675c-.372.372-.372.978 0 1.35l5.405 5.403c.373.373.978.373 1.35 0l.677-.676c.373-.373.373-.978 0-1.35l-5.404-5.404zm10.416.39l-5.403-5.402c-.372-.374-.977-.374-1.35 0l-.675.675c-.373.373-.373.978 0 1.35l5.402 5.405c.373.373.978.373 1.35 0l.677-.676c.373-.374.373-.978 0-1.352zm-20.41 9.603c-.372-.373-.977-.373-1.35 0l-.676.676c-.373.373-.373.977 0 1.35l5.403 5.403c.374.373.98.373 1.352 0l.675-.675c.373-.372.373-.978 0-1.35l-5.402-5.403zm4.99-5.013c-.373-.373-.98-.373-1.354 0l-.68.675c-.373.372-.373.978 0 1.35l5.425 5.404c.375.373.98.373 1.356 0l.68-.675c.374-.375.374-.98 0-1.353l-5.425-5.403zm5.004-4.98c-.373-.374-.978-.374-1.35 0l-.677.675c-.372.372-.372.978 0 1.35l5.405 5.403c.373.373.978.373 1.35 0l.677-.676c.373-.373.373-.978 0-1.35l-5.404-5.404zm10.416.39l-5.403-5.402c-.372-.374-.977-.374-1.35 0l-.675.675c-.373.373-.373.978 0 1.35l5.402 5.405c.373.373.978.373 1.35 0l.677-.676c.373-.374.373-.978 0-1.352z"/><path fill="#C5673A" d="M60.378 17.255c4.6-4.573 9.98-7.844 15.398-10.1-2.098-1.264-4.295-2.38-6.578-3.33-5.68 2.262-11.357 5.638-16.177 10.43C37.33 29.86 37.42 55.252 40.946 58.758c1.084 1.078 3.5 1.838 6.753 2.118-2.874-5.688-2.055-28.968 12.68-43.62z"/><path fill="#EFF1F1" d="M39.145 46.268c2.53 1.873 5.623 4.355 8.42 7.15 2.446 2.443 4.653 5.112 6.427 7.437 2.72-.216 5.69-.693 8.77-1.48-1.777-2.616-5.29-7.48-9.48-11.666-4.893-4.89-10.707-8.844-12.78-10.196-.735 3.087-1.166 6.053-1.357 8.754z"/><path fill="#CCCDCD" d="M46.38 52.27c.018-2.88.33-6.212 1.037-9.75-2.99-2.383-5.65-4.18-6.915-5.005-.18.75-.34 1.495-.482 2.23l-.035.19c-.13.666-.242 1.324-.343 1.973l-.034.22c-.216 1.43-.37 2.814-.463 4.135v.006c2.177 1.61 4.77 3.675 7.236 6z"/></svg>