<svg xmlns="http://www.w3.org/2000/svg" width="100" height="100" viewBox="0 0 100 100"><path fill="#324D5B" d="M50 0C22.386 0 0 22.386 0 50s22.386 50 50 50 50-22.387 50-50S77.614 0 50 0z"/><path fill="#2B424D" d="M19 82.998v-56L.188 45.81C.073 47.194 0 48.588 0 50c0 12.65 4.707 24.192 12.452 33H19z"/><path fill="#DA9C44" d="M89 81.272V57L49.975 38 11 57v24.272C20.164 92.687 34.224 100 50 100c15.775 0 29.836-7.313 39-18.728z"/><path fill="#F3F3F3" d="M19 27h63c1.104 0 2 .895 2 2v46c0 1.104-.896 2-2 2H19c-1.104 0-2-.896-2-2V29c0-1.105.896-2 2-2z"/><path fill="#26A6D1" d="M38 32h7l4-5h-7l-4 5zm30-5l-4 5h7l4-5h-7zm-51 2v3h3l4-5h-5c-1.104 0-2 .895-2 2z"/><path fill="#E2574C" d="M51 32h7l4-5h-7l-4 5zm-26 0h7l4-5h-7l-4 5zm57-5h-1l-4 5h7v-3c0-1.105-.896-2-2-2z"/><path fill="#DFE1E2" d="M73.5 47h-17c-.828 0-1.5.67-1.5 1.5s.672 1.5 1.5 1.5h17c.828 0 1.5-.67 1.5-1.5s-.672-1.5-1.5-1.5zm-3 6h-14c-.828 0-1.5.672-1.5 1.5s.672 1.5 1.5 1.5h14c.828 0 1.5-.672 1.5-1.5s-.672-1.5-1.5-1.5zm-31.483-4.04l.682 3.585L34 44l-8 12c0 1.104 5.148 2 11.5 2S49 57.103 49 56l-7-10-2.983 2.96zM40 44c1.104 0 2-.897 2-2s-.896-2-2-2-2 .895-2 2 .896 2 2 2zm16.5 0h17c.828 0 1.5-.67 1.5-1.5s-.672-1.5-1.5-1.5h-17c-.828 0-1.5.67-1.5 1.5s.672 1.5 1.5 1.5z"/><path fill="#F4B459" d="M89 81.272V57L49.975 76 11 57v24.272C20.164 92.687 34.224 100 50 100c15.775 0 29.836-7.313 39-18.728z"/><path fill="#F6C37A" d="M89 57L20.59 90.427c8.25 6.012 18.404 9.57 29.393 9.573h.034C65.787 99.994 79.84 92.682 89 81.272V57z"/></svg>