<svg xmlns="http://www.w3.org/2000/svg" width="100" height="100" viewBox="0 0 100 100"><path fill="#3E4F71" d="M50 0C22.385 0 0 22.385 0 50c0 27.614 22.386 50 50 50s50-22.387 50-50c0-27.615-22.387-50-50-50z"/><path fill="#EFEFEF" d="M47.985 68.99c-1.02 0-1.746-.787-1.995-.94-.797-.49-.603-.628-2.045-1.058l-4.038.01c-.503 0-.91-.404-.91-.902V46.882c0-.5.407-.902.91-.902h5.342c.125-.068.517-.402 1.212-1.187 1.227-1.382 2.312-3.262 3.362-4.927.85-1.346 1.65-2.62 2.496-3.667 1.157-1.44 1.883-1.967 2.584-2.478.72-.522.574-.64 2.01-2.475 2.3-2.938 2.612-4.807 2.916-6.615.054-.32.11-.65.175-.98.26-1.308 1.405-2.66 2.876-2.66.53 0 1.048.175 1.538.52 1.88 1.318 2.866 5.157 2.494 7.707-.383 2.618-1.578 6.004-2.68 7.23-.96 1.065-1.41 2.12-1.213 3.745.093.773 1.282.804 1.333.806l7.44.03c2.15.017 6.21.69 6.212 4.842 0 1.894-.77 3.07-1.666 3.757.85.757 1.515 1.74 1.277 3.608-.23 1.812-1.128 2.894-2.173 3.448.577.77.967 1.886.712 3.397-.245 1.455-1.134 2.47-2.048 2.96.43.66.7 1.667.473 2.87-.532 2.822-2.976 2.985-4.02 3.056l-.322.02H47.985z"/><path fill="#DCDCDC" d="M76.34 49.63c.896-.687 1.666-1.864 1.666-3.758 0-4.153-4.062-4.826-6.213-4.843l-7.44-.03c-.05-.002-1.24-.032-1.333-.806-.198-1.624.254-2.68 1.212-3.746 1.103-1.225 2.298-4.61 2.68-7.23.373-2.55-.614-6.39-2.493-7.708-.49-.344-1.008-.52-1.538-.518-.553 0-1.06.19-1.492.5l.03.018c1.878 1.32 2.865 5.158 2.493 7.708-.383 2.62-1.578 6.005-2.68 7.23-.96 1.066-1.41 2.122-1.213 3.746.094.773 1.283.804 1.334.806l7.44.028c2.15.018 6.21.69 6.212 4.843 0 1.895-.77 3.072-1.666 3.758.852.758 1.516 1.742 1.278 3.61-.23 1.81-1.128 2.893-2.173 3.447.577.77.967 1.886.712 3.397-.245 1.455-1.134 2.47-2.048 2.96.43.66.698 1.667.472 2.87-.533 2.822-2.977 2.985-4.02 3.056l-.323.02h3l.322-.02c1.043-.07 3.486-.233 4.02-3.056.227-1.203-.042-2.21-.473-2.87.913-.49 1.802-1.505 2.047-2.96.255-1.512-.135-2.627-.712-3.397 1.045-.555 1.942-1.636 2.173-3.448.237-1.866-.427-2.85-1.278-3.608zM39.875 66.994l.032.007 1.06-.003-.022-.008-1.07.003zM76.34 49.63c.896-.687 1.666-1.864 1.666-3.758 0-4.153-4.062-4.826-6.213-4.843l-7.44-.03c-.05-.002-1.24-.032-1.333-.806-.198-1.624.254-2.68 1.212-3.746 1.103-1.225 2.298-4.61 2.68-7.23.373-2.55-.614-6.39-2.493-7.708-.49-.344-1.008-.52-1.538-.518-.553 0-1.06.19-1.492.5l.03.018c1.878 1.32 2.865 5.158 2.493 7.708-.383 2.62-1.578 6.005-2.68 7.23-.96 1.066-1.41 2.122-1.213 3.746.094.773 1.283.804 1.334.806l7.44.028c2.15.018 6.21.69 6.212 4.843 0 1.895-.77 3.072-1.666 3.758.852.758 1.516 1.742 1.278 3.61-.23 1.81-1.128 2.893-2.173 3.447.577.77.967 1.886.712 3.397-.245 1.455-1.134 2.47-2.048 2.96.43.66.698 1.667.472 2.87-.533 2.822-2.977 2.985-4.02 3.056l-.323.02h3l.322-.02c1.043-.07 3.486-.233 4.02-3.056.227-1.203-.042-2.21-.473-2.87.913-.49 1.802-1.505 2.047-2.96.255-1.512-.135-2.627-.712-3.397 1.045-.555 1.942-1.636 2.173-3.448.237-1.866-.427-2.85-1.278-3.608zM39.875 66.994l.032.007 1.06-.003-.022-.008-1.07.003z"/><path fill="#D7D7D7" d="M38.998 46.008h3.018v21h-3.018v-21z"/><path fill="#5879BD" d="M37.68 70H26.613c-1.274 0-2.312-1.04-2.312-2.316l-3.303-21.38c0-1.28 1.037-2.318 2.31-2.318H37.68c1.275 0 2.312 1.04 2.312 2.318v21.38c0 1.277-1.038 2.317-2.312 2.317z"/><path fill="#fff" d="M33.993 61.006c1.105 0 2 .895 2 2 0 1.102-.895 1.996-2 1.996s-2.002-.895-2.002-1.997c0-1.105.897-2 2.003-2z"/><path fill="#5170AE" d="M39.68 68H28.613c-1.274 0-2.312-1.04-2.312-2.316l-3.303-21.38.03-.29c-1.142.142-2.03 1.108-2.03 2.29l3.304 21.38C24.3 68.96 25.34 70 26.614 70H37.68c1.176 0 2.14-.888 2.282-2.027L39.68 68z"/><path fill="#48639A" d="M33.993 65.002c-1.105 0-2.002-.895-2.002-1.997 0-.292.067-.568.18-.818-.694.313-1.18 1.008-1.18 1.818 0 1.103.897 1.997 2.003 1.997.813 0 1.51-.486 1.823-1.18-.252.113-.53.18-.823.18z"/></svg>