<svg xmlns="http://www.w3.org/2000/svg" width="100" height="100" viewBox="0 0 100 100"><circle fill="#E2574C" cx="50" cy="50" r="50"/><path fill="#324D5B" d="M43.624 49.92l14.39 9.052-14.47 25.022-5.274-8.014-10.282.047L43.624 49.92z"/><path fill="#445D6A" d="M56.376 50.015l-14.39 9.025 14.47 24.954 5.274-7.99 10.282.045-15.636-26.035z"/><path fill="#EFC75E" d="M74 44c0 2.026-2.938 3.64-3.438 5.51-.518 1.935 1.204 4.798.225 6.49-.994 1.72-4.344 1.653-5.738 3.048S63.72 63.792 62 64.786c-1.693.98-4.557-.74-6.49-.225C53.64 65.06 52.027 68 50 68s-3.642-2.937-5.51-3.437c-1.936-.516-4.8 1.205-6.493.226-1.718-.994-1.652-4.344-3.047-5.738-1.394-1.395-4.743-1.33-5.737-3.047-.98-1.692.74-4.556.225-6.49C28.938 47.64 26 46.026 26 44s2.938-3.643 3.438-5.512c.517-1.935-1.205-4.8-.225-6.492.994-1.718 4.344-1.652 5.738-3.047 1.395-1.395 1.33-4.745 3.047-5.738 1.694-.98 4.558.74 6.492.224C46.357 22.936 47.97 20 50 20s3.642 2.937 5.51 3.436c1.936.518 4.8-1.204 6.493-.224 1.718.994 1.652 4.344 3.046 5.738 1.394 1.394 4.743 1.328 5.737 3.046.98 1.694-.74 4.558-.225 6.492.5 1.87 3.438 3.484 3.438 5.51z"/><path fill="#FCE29C" d="M50 27c-9.39 0-17 7.61-17 17s7.61 17 17 17 17-7.612 17-17-7.61-17-17-17zm0 32c-8.284 0-15-6.717-15-15s6.716-15 15-15 15 6.715 15 15-6.716 15-15 15zm7.94-17.41c-.14-.385-.494-.668-.922-.73l-4.163-.6-1.81-3.634C50.855 36.244 50.448 36 50 36s-.855.244-1.046.626l-1.81 3.635-4.164.6c-.428.063-.783.346-.92.73-.14.39-.034.815.268 1.107l3.05 2.947-.706 4.09c-.072.41.112.825.474 1.066.2.132.433.198.666.198.19 0 .384-.045.56-.135L50 48.973l3.63 1.892c.175.09.367.135.56.135.232 0 .466-.066.665-.198.36-.24.545-.655.474-1.066l-.71-4.09 3.053-2.947c.3-.295.404-.72.267-1.11z"/></svg>