<svg xmlns="http://www.w3.org/2000/svg" width="100" height="100" viewBox="0 0 100 100"><path fill="#E2574C" d="M50 0C22.386 0 0 22.387 0 50c0 27.615 22.386 50 50 50s50-22.385 50-50c0-27.614-22.386-50-50-50z"/><path fill="#E5685E" d="M70.918 4.588C64.552 1.65 57.47 0 50 0S35.448 1.65 29.083 4.59l-15.857 79.28C22.356 93.776 35.43 99.99 49.96 100h.078c14.53-.01 27.607-6.225 36.735-16.13L70.918 4.587z"/><path fill="#ABADAF" d="M47 84h6v16h-6V84z"/><path fill="#3E525C" d="M56 78v3c0 1.657-1.343 3-3 3h-6c-1.656 0-3-1.343-3-3v-3h12z"/><path fill="#E1E5E7" d="M42 22h16c5.522 0 10 4.478 10 10v36c0 5.523-4.478 10-10 10H42c-5.523 0-10-4.477-10-10V32c0-5.522 4.477-10 10-10z"/><path d="M60 52H40c-1.104 0-2 .896-2 2s.896 2 2 2h20c1.104 0 2-.896 2-2s-.896-2-2-2zm0-16H40c-1.104 0-2 .896-2 2s.896 2 2 2h20c1.104 0 2-.896 2-2s-.896-2-2-2zm-2-6c1.104 0 2-.896 2-2v-5.8c-.646-.13-1.315-.2-2-.2h-2v6c0 1.104.896 2 2 2zm2 34c1.104 0 2-.896 2-2s-.896-2-2-2H40c-1.104 0-2 .896-2 2s.896 2 2 2h20zm0-20H40c-1.104 0-2 .896-2 2s.896 2 2 2h20c1.104 0 2-.896 2-2s-.896-2-2-2zm0 28c0-1.104-.896-2-2-2s-2 .896-2 2v6h2c.685 0 1.354-.07 2-.2V72zM50 30c1.104 0 2-.896 2-2v-6h-4v6c0 1.104.896 2 2 2zm.5 40h-1c-.828 0-1.5.672-1.5 1.5V78h4v-6.5c0-.828-.672-1.5-1.5-1.5zM42 70c-1.104 0-2 .896-2 2v5.8c.646.13 1.315.2 2 .2h2v-6c0-1.104-.896-2-2-2zm-2-42c0 1.104.896 2 2 2s2-.896 2-2v-6h-2c-.685 0-1.354.07-2 .2V28z" fill="#BCBDBE"/><path fill="#CFD1D3" d="M47 36h6v4h-6zm0 8h6v4h-6zm0 8h6v4h-6zm0 8h6v4h-6z"/><path fill="#CACED0" d="M58 74H42c-5.523 0-10-4.477-10-10v4c0 5.523 4.477 10 10 10h16c5.522 0 10-4.477 10-10v-4c0 5.523-4.478 10-10 10z"/><path fill="#B5B6B7" d="M42 74c-.685 0-1.354-.07-2-.2v4c.323.064.65.115.985.15.333.032.672.05 1.015.05h2v-4h-2zm6 0h4v4h-4zm12 3.8v-4c-.646.13-1.315.2-2 .2h-2v4h2c.343 0 .682-.018 1.015-.05.334-.035.662-.086.985-.15z"/><path fill="#BCBEC0" d="M47 87h6v13h-6V87z"/><path fill="#475F6C" d="M56 80v1c0 1.657-1.343 3-3 3h-6c-1.656 0-3-1.343-3-3v-1h12z"/></svg>