<svg xmlns="http://www.w3.org/2000/svg" width="100" height="100" viewBox="0 0 100 100"><path fill="#324D5B" d="M50 0c27.614 0 50 22.386 50 50s-22.386 50-50 50S0 77.614 0 50 22.386 0 50 0z"/><path fill="#EEF3F3" d="M19 89.216C27.524 95.96 38.288 100 50 100c3.78 0 7.46-.434 11-1.23V67L19.003 46.996 19 89.216z"/><path fill="#D8D8D8" d="M61.012 98.77c10.183-2.29 19.195-7.674 25.98-15.13V54L61.01 67.074V98.77z"/><path fill="#C0C0C0" d="M60 67l13-20 14 7v1L61 68l-1-1z"/><path fill="#909090" d="M69 45l18 9-18-3v-6z"/><path fill="#3DBEE9" d="M32 28l.833-1.417 40.73 19.167.23 1.667L61 67v1L19 48v-1l13-19z"/><path fill="#EEF3F3" d="M34.62 17.25L71.17 34.774c1.45.714 2.624 2.74 2.624 4.527v8.116L32 28l-.004-8.81c0-1.786 1.175-2.655 2.625-1.94z"/><path fill="#D6DADA" d="M49.068 41.38c1.914 1.915 2.606 4.62.36 7.724-2.245 3.104-6.048 4.678-8.492 3.517C38.49 51.46 38 50 38 50s8.913-9.904 10-10c.03-.002.262.573 1.068 1.38z"/><path fill="#EEF3F3" d="M47.068 39.38c2.445 1.162 2.606 4.62.36 7.724-2.245 3.104-6.048 4.678-8.492 3.517-2.445-1.16-2.606-4.618-.36-7.722 2.245-3.104 6.048-4.678 8.492-3.517z"/><path fill="#37ABD1" d="M43.895 27.08l16.21 7.483c.5.26.902 1 .902 1.65s-.403.966-.9.706l-16.212-7.484c-.498-.26-.9-.998-.9-1.65-.002-.65.4-.966.9-.705z"/><path fill="#40A8CA" d="M67.795 74.455l14.41-7.276c.995-.504 1.802.106 1.802 1.362v6.82c0 1.256-.807 2.682-1.802 3.184l-14.41 7.276c-.995.502-1.802-.108-1.802-1.364v-6.82c0-1.256.807-2.68 1.802-3.183z"/><path d="M19.006 66.34l41.988 19.667V81.66L19.006 61.994zm0 22.88C27.526 95.963 38.29 100 50 100c3.78 0 7.455-.433 10.994-1.228v-9.11L19.006 69.99V89.22z" fill="#37ABD1"/></svg>