<svg xmlns="http://www.w3.org/2000/svg" width="100" height="100" viewBox="0 0 100 100"><path fill="#3DB39E" d="M50.147 0c-27.614 0-50 22.386-50 50 0 27.613 22.386 50 50 50s50-22.387 50-50c0-27.615-22.385-50-50-50z"/><path fill="#BF392B" d="M93.14 24.477c-4.146-6.972-9.937-12.85-16.844-17.096l-38.25 38.25c-1.358 1.358-5.702 21.296-4.764 22.234.96.962 20.415-3.943 21.733-5.263L93.14 24.478z"/><path fill="#FFCABA" d="M46.52 54.107c-.995-.996-1.123-5.367-2.127-6.37-1.003-1.005-6.344-2.105-6.348-2.106-1.303 1.304-5.356 19.725-4.848 22.023l.295.296c2.282.487 20.257-4.082 21.523-5.35 0 0-1.146-5.388-2.127-6.368-.98-.982-5.37-1.128-6.367-2.125z"/><path fill="#E5B5A7" d="M33.17 67.506l.027.146.296.297c2.286.486 20.256-4.082 21.522-5.35 0 0-1.102-5.343-2.105-6.348-16.72 9.51-19.33 11.016-19.74 11.254z"/><path fill="#FFDCD2" d="M33.164 67.435c.305-.523 1.98-3.438 11.23-19.697-1.005-1.005-6.35-2.106-6.35-2.106-1.267 1.266-5.137 18.73-4.88 21.803z"/><path fill="#BF392B" d="M36.63 64.017c-.686-.688-1.865-1.202-2.96-1.285-.466 2.772-.675 4.846-.388 5.133.28.28 2.13.062 4.637-.42.06-1.212-.502-2.64-1.29-3.428z"/><path fill="#C9574B" d="M38.045 45.63s5.345 1.103 6.35 2.107c-.016.024 36.882-36.852 36.882-36.852-1.587-1.264-3.246-2.44-4.98-3.506L38.045 45.63z"/><path fill="#AC3327" d="M89.7 19.43S52.887 56.267 52.91 56.254c1.004 1.005 2.105 6.35 2.105 6.35L93.14 24.476c-1.043-1.756-2.195-3.438-3.44-5.046z"/></svg>