<svg xmlns="http://www.w3.org/2000/svg" xmlns:xlink="http://www.w3.org/1999/xlink" width="100" height="100" viewBox="0 0 100 100"><path fill="#E2574C" d="M50 0C22.386 0 0 22.386 0 50s22.386 50 50 50 50-22.386 50-50S77.614 0 50 0z"/><defs><path id="a" d="M50 0C22.386 0 0 22.386 0 50s22.386 50 50 50 50-22.386 50-50S77.614 0 50 0z"/></defs><clipPath id="b"><use xlink:href="#a" overflow="visible"/></clipPath><g clip-path="url(#b)"><path fill="#E4E7E7" d="M19 56h82c1.656 0 3 1.343 3 3v51c0 1.657-1.344 3-3 3H19c-1.657 0-3-1.343-3-3V59c0-1.657 1.343-3 3-3z"/><path fill="#D8DBDB" d="M16 79h80v21H16V79z"/><path fill="#324D5B" d="M36 50h65c1.656 0 3 1.344 3 3v14c0 1.657-1.344 3-3 3H36c-1.657 0-3-1.343-3-3V53c0-1.656 1.343-3 3-3z"/><path fill="#283E49" d="M43 57h56c1.104 0 2 .895 2 2v2c0 1.105-.896 2-2 2H43c-1.104 0-2-.896-2-2v-2c0-1.105.896-2 2-2z"/><path fill="#3DB39E" d="M36 86c1.657 0 3 1.343 3 3s-1.343 3-3 3-3-1.343-3-3 1.343-3 3-3z"/><path fill="#324D5B" d="M46 86c1.657 0 3 1.343 3 3s-1.343 3-3 3-3-1.343-3-3 1.343-3 3-3z"/><path fill="#CCD0D2" d="M45 20h-5c-2.76 0-5 2.24-5 5v6c0 2.762 2.24 5 5 5h5c2.76 0 5-2.238 5-5v-6c0-2.76-2.24-5-5-5z"/><path fill="#F3F3F3" d="M97 20H40c2.762 0 5 2.24 5 5v35h55V23c0-1.657-1.344-3-3-3z"/><path fill="#DFE1E2" d="M54.5 31h45c.828 0 1.5-.67 1.5-1.5s-.672-1.5-1.5-1.5h-45c-.828 0-1.5.67-1.5 1.5s.672 1.5 1.5 1.5zm45 4h-45c-.828 0-1.5.672-1.5 1.5 0 .83.672 1.5 1.5 1.5h45c.828 0 1.5-.672 1.5-1.5s-.672-1.5-1.5-1.5zm0 7h-45c-.828 0-1.5.672-1.5 1.5s.672 1.5 1.5 1.5h45c.828 0 1.5-.672 1.5-1.5s-.672-1.5-1.5-1.5zm0 7h-45c-.828 0-1.5.67-1.5 1.5 0 .828.672 1.5 1.5 1.5h45c.828 0 1.5-.672 1.5-1.5 0-.83-.672-1.5-1.5-1.5z"/></g></svg>