<svg xmlns="http://www.w3.org/2000/svg" width="100" height="100" viewBox="0 0 100 100"><path fill="#3DB39E" d="M50 0C22.386 0 0 22.386 0 50s22.386 50 50 50 50-22.386 50-50S77.614 0 50 0z"/><path fill="#37A18E" d="M79.222 72.675c-1.415-1.415-3.45-1.802-5.225-1.2l-4.722-4.722c3.365-4.424 5.367-9.942 5.367-15.93 0-14.547-11.792-26.34-26.34-26.34-14.545 0-26.337 11.793-26.337 26.34 0 14.546 11.792 26.338 26.338 26.338 5.988 0 11.507-2 15.93-5.367l4.724 4.723c-.602 1.773-.215 3.81 1.2 5.224l8.922 8.923c3.49-2.502 6.654-5.435 9.395-8.733l-9.253-9.255z"/><path fill="#F5F5F5" d="M68.535 63.464l-5.07 5.07L82.72 87.79c1.81-1.567 3.503-3.263 5.07-5.07L68.536 63.463z"/><path fill="#fff" d="M48.5 22C63.136 22 75 33.864 75 48.5 75 63.135 63.136 75 48.5 75S22 63.135 22 48.5C22 33.864 33.864 22 48.5 22z"/><path fill="#82CEE8" d="M48.5 27C60.374 27 70 36.626 70 48.5S60.374 70 48.5 70 27 60.374 27 48.5 36.626 27 48.5 27z"/><path fill="#A8DDEF" d="M38.19 53.38c-.5-.5-1.31-.5-1.81 0s-.5 1.31 0 1.81l5.43 5.43c.5.5 1.31.5 1.81 0s.5-1.31 0-1.81l-5.43-5.43zm11.434 4.45L39.17 47.374c-.495-.495-1.3-.495-1.794 0s-.495 1.3 0 1.794L47.83 59.622c.495.495 1.3.495 1.794 0s.495-1.298 0-1.794z"/><path fill="#EFC75E" d="M79.606 70.485c-1.996-1.996-5.232-1.996-7.23 0l-1.89 1.892c-1.997 1.997-1.997 5.233 0 7.23L80.49 89.612c3.42-2.636 6.485-5.702 9.12-9.12L79.607 70.484z"/><path fill="#D7B354" d="M72.507 77.606c-1.993-1.993-1.995-5.223-.008-7.22l-.122.1-1.892 1.89c-1.996 1.998-1.996 5.234 0 7.23l10.007 10.007c.755-.582 1.49-1.187 2.21-1.81L72.508 77.606z"/><path fill="#72B5CC" d="M48.5 27c-6.7 0-12.684 3.067-16.627 7.873C35.583 31.83 40.327 30 45.5 30 57.374 30 67 39.626 67 51.5c0 5.173-1.83 9.917-4.873 13.627C66.933 61.184 70 55.2 70 48.5 70 36.626 60.374 27 48.5 27z"/></svg>