<svg xmlns="http://www.w3.org/2000/svg" width="100" height="100" viewBox="0 0 100 100"><path fill="#EDEDED" d="M50 0C22.386 0 0 22.387 0 50c0 27.615 22.386 50 50 50 27.613 0 50-22.385 50-50 0-27.613-22.387-50-50-50z"/><path fill="#D07C40" d="M19.004 29.985h62.02V79.96H19.067l-.062-49.975z"/><path d="M84.003 42.015c0 .025-67.944-.02-68.008 0v37.92c0 .003-.007 2.998-.018 6.692C24.902 94.92 36.855 100 50 100c13.122 0 25.057-5.06 33.977-13.328-.03-3.71-.057-6.723-.055-6.724 0-15.728.08-37.933.08-37.933zM75.02 34.01v6.52l6.005-1.17v-9.375zm-50.01 6.013V34.01l-6.006-4.025v9.984z" fill="#EFC75E"/><path fill="#DBA250" d="M25.01 42.015V34.01l-9.015 8.005h9.015zm50.01-8.006v8.005h8.982l-8.98-8.006z"/><path fill="#CBA950" d="M71.064 57.558c0-.838-.724-1.586-1.562-1.586s-1.65.748-1.65 1.586c-.003 10.158-7.64 18.393-17.8 18.393s-17.995-8.232-18-18.392c0-.838-.71-1.586-1.55-1.586s-1.656.748-1.656 1.586c0 11.936 9.275 21.608 21.21 21.608 11.932 0 21.008-9.674 21.008-21.608z"/><path fill="#D07C40" d="M30.472 52.988c-1.37 0-2.48 1.11-2.48 2.48 0 1.37 1.11 2.48 2.48 2.48 1.37 0 2.512-1.11 2.512-2.48 0-1.368-1.143-2.48-2.512-2.48zm39 0c-1.37 0-2.48 1.11-2.48 2.48 0 1.37 1.11 2.48 2.48 2.48 1.37 0 2.513-1.11 2.513-2.48-.003-1.368-1.144-2.48-2.512-2.48z"/><path fill="#fff" d="M71.064 56.558c0-.838-.724-1.586-1.562-1.586s-1.65.748-1.65 1.586c-.003 10.158-7.64 18.393-17.8 18.393s-17.995-8.232-18-18.392c0-.838-.71-1.586-1.55-1.586s-1.656.748-1.656 1.586c0 11.936 9.275 21.608 21.21 21.608 11.932 0 21.008-9.674 21.008-21.608z"/></svg>