<svg xmlns="http://www.w3.org/2000/svg" width="100" height="100" viewBox="0 0 100 100"><path fill="#E37948" d="M50 0c27.613 0 50 22.386 50 50s-22.387 50-50 50C22.386 100 0 77.614 0 50S22.386 0 50 0z"/><path fill="#34495E" d="M89.86 19.823c-.637-.84-1.306-1.656-1.994-2.454C86.33 20.13 83.386 22 80 22c-4.97 0-9-4.03-9-9 0-2.72 1.21-5.15 3.117-6.802-.924-.51-1.865-.99-2.823-1.44C69.258 6.908 68 9.805 68 13c0 4.032 1.995 7.59 5.045 9.767C58.718 25.944 48 38.717 48 54c0 17.674 14.327 32 32 32 1.74 0 3.445-.144 5.11-.41C94.3 76.52 100 63.93 100 50c0-9.168-2.48-17.753-6.787-25.14-1.986-.902-4.08-1.61-6.258-2.093 1.13-.806 2.113-1.804 2.906-2.944z"/><path fill="#ECF0F1" d="M100 50c0-5.243-.81-10.296-2.308-15.045C93.052 30.642 86.836 28 80 28c-14.36 0-26 11.64-26 26s11.64 26 26 26c4.35 0 8.446-1.073 12.05-2.962C97.072 69.24 100 59.965 100 50z"/><path fill="#D4D8D9" d="M98.477 37.722c-.236-.933-.497-1.856-.784-2.767C93.053 30.642 86.836 28 80 28c-14.36 0-26 11.64-26 26 0 .335.014.668.025 1C54.553 41.105 65.977 30 80 30c7.23 0 13.765 2.957 18.477 7.722z"/><path fill="#E74C3C" d="M82 50.555V36c0-1.104-.896-2-2-2s-2 .896-2 2v14.555c-1.19.693-2 1.97-2 3.445 0 2.21 1.79 4 4 4s4-1.79 4-4c0-1.477-.81-2.752-2-3.445z"/><path fill="#fff" d="M24 35h20c1.104 0 2-.895 2-2 0-1.104-.896-2-2-2H24c-1.104 0-2 .896-2 2 0 1.105.896 2 2 2zM14 45h20c1.104 0 2-.895 2-2 0-1.104-.896-2-2-2H14c-1.104 0-2 .896-2 2 0 1.105.896 2 2 2zm22 18c0-1.104-.896-2-2-2H14c-1.104 0-2 .896-2 2s.896 2 2 2h20c1.104 0 2-.896 2-2zm9 8H25c-1.104 0-2 .896-2 2s.896 2 2 2h20c1.104 0 2-.896 2-2s-.896-2-2-2zM17 51c-1.104 0-2 .896-2 2 0 1.105.896 2 2 2h22c1.104 0 2-.895 2-2 0-1.104-.896-2-2-2H17z"/><path fill="#2C3E50" d="M83 14h-6v7.477c.94.333 1.946.523 3 .523s2.06-.19 3-.523V14z"/><path fill="#34495E" d="M85.712 15.02C83.938 13.207 82.032 11.525 80 10h-4c-1.104 0-2 .896-2 2v2c0 1.105.896 2 2 2h8c.73 0 1.363-.396 1.712-.98z"/></svg>