<svg xmlns="http://www.w3.org/2000/svg" width="100" height="100" viewBox="0 0 100 100"><path fill="#2394BC" d="M50 0c27.615 0 50 22.385 50 50 0 27.614-22.385 50-50 50-27.614 0-50-22.386-50-50C0 22.384 22.386 0 50 0z"/><path d="M41.31 29.884c3.538.688 6.94-1.614 7.598-5.14.658-3.524-1.677-6.938-5.214-7.626-3.537-.687-6.938 1.615-7.597 5.14-.658 3.524 1.677 6.94 5.214 7.626zm-2.26-7.053c.353-1.9 2.178-3.14 4.075-2.77 1.898.37 3.15 2.21 2.798 4.11-.352 1.9-2.178 3.14-4.076 2.772-1.9-.37-3.15-2.21-2.798-4.11zM27.534 54.47l3.037-3.036c.562-.563.562-1.474 0-2.036s-1.473-.562-2.035 0L25.5 52.436l-3.037-3.038c-.562-.562-1.473-.562-2.034 0-.563.562-.563 1.473 0 2.036l3.035 3.036-3.066 3.066c-.563.562-.563 1.474 0 2.035.56.563 1.472.563 2.034 0l3.066-3.066 3.067 3.067c.562.563 1.473.563 2.034 0 .563-.56.563-1.472 0-2.034l-3.065-3.066zm51.068-8.933l-3.067-3.067 3.037-3.037c.562-.562.562-1.472 0-2.035-.562-.562-1.473-.562-2.035 0l-3.036 3.037-3.038-3.037c-.56-.562-1.473-.562-2.033 0-.56.563-.56 1.473 0 2.035l3.036 3.037-3.065 3.067c-.56.562-.56 1.473 0 2.035.562.562 1.473.562 2.035 0l3.067-3.067 3.066 3.067c.562.562 1.473.562 2.035 0 .56-.563.56-1.473 0-2.035zM68.536 74.47l3.035-3.037c.564-.562.564-1.473 0-2.034-.56-.563-1.472-.563-2.032 0L66.5 72.434 63.464 69.4c-.562-.563-1.474-.563-2.035 0-.563.56-.563 1.47 0 2.033l3.036 3.037-3.067 3.066c-.562.562-.562 1.473 0 2.035.56.563 1.472.563 2.035 0l3.065-3.065 3.066 3.066c.563.563 1.474.563 2.035 0 .563-.56.563-1.472 0-2.034l-3.064-3.066zm-10.01-32.43L46.72 36.118 44.78 42.55l-1.645 5.504c-.014.1-.063.252-.057.355.054.728.615 1.25 1.344 1.343l.316.008c.773-.056 1.277-.585 1.547-1.384l1.622-5.132c4.81 9.178 2.555 20.72-5.992 27.486-2.043 1.617-5 3.253-7.778 4.333 0 0-2.856.763-2.773 2.47.14 2.872 4.15 1.085 4.852.824 2.823-1.053 5.268-2.434 8.125-4.694C54.206 65.85 56.9 52.6 51.56 41.937l4.664 2.333c.575.25 1.166.525 1.783.466.688-.066 1.185-.706 1.185-1.522 0-.494-.273-.927-.667-1.174z" fill="#2085AA"/><path d="M42.31 28.884c3.538.688 6.94-1.614 7.598-5.14.658-3.524-1.677-6.938-5.214-7.626-3.537-.687-6.938 1.615-7.597 5.14-.658 3.524 1.677 6.94 5.214 7.626zm-2.26-7.053c.353-1.9 2.178-3.14 4.075-2.77 1.898.37 3.15 2.21 2.798 4.11-.352 1.9-2.178 3.14-4.076 2.772-1.9-.37-3.15-2.21-2.798-4.11zM28.534 53.47l3.037-3.036c.562-.563.562-1.474 0-2.036s-1.473-.562-2.035 0L26.5 51.436l-3.037-3.038c-.562-.562-1.473-.562-2.034 0-.563.562-.563 1.473 0 2.036l3.035 3.036-3.066 3.066c-.563.562-.563 1.474 0 2.035.56.563 1.472.563 2.034 0l3.066-3.066 3.067 3.067c.562.563 1.473.563 2.034 0 .563-.56.563-1.472 0-2.034l-3.065-3.066zm51.068-8.933l-3.067-3.067 3.037-3.037c.562-.562.562-1.472 0-2.035-.562-.562-1.473-.562-2.035 0l-3.036 3.037-3.038-3.037c-.56-.562-1.473-.562-2.033 0-.56.563-.56 1.473 0 2.035l3.036 3.037-3.065 3.067c-.56.562-.56 1.473 0 2.035.562.562 1.473.562 2.035 0l3.067-3.067 3.066 3.067c.562.562 1.473.562 2.035 0 .56-.563.56-1.473 0-2.035zM69.536 73.47l3.035-3.037c.564-.562.564-1.473 0-2.034-.56-.563-1.472-.563-2.032 0L67.5 71.434 64.464 68.4c-.562-.563-1.474-.563-2.035 0-.563.56-.563 1.47 0 2.033l3.036 3.037-3.067 3.066c-.562.562-.562 1.473 0 2.035.56.563 1.472.563 2.035 0l3.065-3.065 3.066 3.066c.563.563 1.474.563 2.035 0 .563-.56.563-1.472 0-2.034l-3.064-3.066zm-10.01-32.43L47.72 35.118 45.78 41.55l-1.645 5.504c-.014.1-.063.252-.057.355.054.728.615 1.25 1.344 1.343l.316.008c.773-.056 1.277-.585 1.547-1.384l1.622-5.132c4.81 9.178 2.555 20.72-5.992 27.486-2.043 1.617-5 3.253-7.778 4.333 0 0-2.856.763-2.773 2.47.14 2.872 4.15 1.085 4.852.824 2.823-1.053 5.268-2.434 8.125-4.694C55.206 64.85 57.9 51.6 52.56 40.937l4.664 2.333c.575.25 1.166.525 1.783.466.688-.066 1.185-.706 1.185-1.522 0-.494-.273-.927-.667-1.174z" fill="#fff"/></svg>