<svg xmlns="http://www.w3.org/2000/svg" xmlns:xlink="http://www.w3.org/1999/xlink" width="100" height="100" viewBox="0 0 100 100"><path fill="#55ACEE" d="M50 0C22.386 0 0 22.385 0 50c0 27.613 22.386 50 50 50s50-22.387 50-50c0-27.615-22.386-50-50-50z"/><defs><path id="a" d="M50 0C22.386 0 0 22.385 0 50c0 27.613 22.386 50 50 50s50-22.387 50-50c0-27.615-22.386-50-50-50z"/></defs><clipPath id="b"><use xlink:href="#a" overflow="visible"/></clipPath><g clip-path="url(#b)"><path fill="#4C9AD6" d="M3 11h30c2.21 0 4 1.79 4 4v22c0 2.208-1.79 4-4 4H19.016c-.56 0-2.493.26-3.023.79-1.5 1.2-1.393 1.52-3.496 3.204.05-.04-2.498 2.305-2.498-.015.004-2.37-.01-3.98-.01-3.98H3c-2.21 0-4-1.79-4-4V15c0-2.21 1.79-4 4-4z"/><path fill="#B8D9F2" d="M96 21H66c-2.21 0-4 1.79-4 4v22c0 2.208 1.79 4 4 4h13.984c.56 0 2.492.26 3.022.79 1.5 1.2 1.394 1.52 3.497 3.204-.05-.04 2.498 2.305 2.498-.016-.005-2.37.01-3.98.01-3.98H96c2.21 0 4-1.79 4-4V25c0-2.21-1.79-4-4-4z"/><path fill="#fff" d="M28 30h44c2.21 0 4 1.79 4 4v34c0 2.208-1.79 3.998-4 3.998H49.016c-.56 0-2.492.263-3.022.793l-6.497 5.204c.05-.04-2.498 2.305-2.498-.016.005-2.37-.01-5.98-.01-5.98H28c-2.21 0-4-1.79-4-4V34c0-2.21 1.79-4 4-4z"/><path fill="#55ACEE" d="M65.004 42.598c-1.066.442-2.214.74-3.418.875 1.23-.688 2.172-1.775 2.617-3.073-1.15.637-2.424 1.1-3.78 1.35-1.085-1.08-2.632-1.755-4.343-1.755-3.287 0-5.95 2.486-5.95 5.553 0 .436.052.86.153 1.266-4.947-.232-9.332-2.442-12.268-5.803-.512.822-.806 1.775-.806 2.794 0 1.926 1.05 3.626 2.646 4.622-.975-.03-1.893-.278-2.695-.695v.07c0 2.69 2.052 4.936 4.774 5.446-.5.127-1.025.196-1.568.196-.383 0-.756-.035-1.12-.102.76 2.207 2.956 3.812 5.56 3.857-2.037 1.49-4.603 2.378-7.39 2.378-.48 0-.955-.027-1.42-.078 2.634 1.575 5.76 2.495 9.122 2.495 10.947 0 16.933-8.463 16.933-15.8 0-.24-.004-.482-.016-.72 1.163-.782 2.173-1.76 2.97-2.874z"/><path d="M72 71.998H49.016c-.56 0-2.492.263-3.022.793l-1.24.993c.543-.524 2.456-.785 3.012-.785H70.75c1.235 0 2.326-.57 3.06-1.45-.546.278-1.155.45-1.81.45zm-35.002 5.98c.006-2.368-.008-5.98-.008-5.98H28c-2.21 0-4-1.79-4-3.998V34c0-.974.362-1.854.94-2.548-1.295.662-2.19 1.994-2.19 3.548v34c0 2.21 1.79 4 4 4h8.99s.014 3.61.008 5.98c0 2.32 2.55-.025 2.498.015l.685-.548c-.737.522-1.932 1.12-1.932-.468z" fill="#4C9AD6"/><path fill="#448AC0" d="M24 41v-7c0-.975.362-1.855.94-2.55-1.295.663-2.19 1.995-2.19 3.55v6H24z"/></g></svg>