<svg xmlns="http://www.w3.org/2000/svg" width="100" height="100" viewBox="0 0 100 100"><path fill="#91D8F0" d="M50.013 0c-27.614 0-50 22.386-50 50s22.386 50 50 50 50-22.386 50-50c0-27.615-22.386-50-50-50z"/><path fill="#E2574C" d="M35.013 97.707c3.207 1.008 6.55 1.7 10 2.043V.25c-3.45.342-6.793 1.035-10 2.042v95.415z"/><path fill="#E4E7E7" d="M55.014.25c-1.645-.164-3.312-.25-5-.25-1.688 0-3.355.085-5 .25v99.5c1.645.164 3.312.25 5 .25 1.688 0 3.356-.086 5-.25V.25z"/><path fill="#324D5B" d="M55.014.256v99.487c3.447-.343 6.795-1.028 10-2.036V2.292C61.81 1.285 58.46.6 55.014.256z"/><path fill="#F5F5F5" d="M77.014 49.998c0-7.5-3.06-14.285-8-19.18V24c0-1.133-.93-2-2-2h-1c-.553 0-1 .447-1 1v4.55c-4.29-2.874-9.45-4.55-15-4.55s-10.71 1.676-15 4.55V23c0-.553-.448-1-1-1h-1c-1.07 0-2 .867-2 2v6.82c-4.94 4.893-8 11.677-8 19.178 0 7.502 3.06 14.287 8 19.18v6.82c0 1.18.92 2 2 2h1c.552 0 1-.447 1-1v-4.55c4.29 2.873 9.45 4.55 15 4.55s10.71-1.677 15-4.55V77c0 .553.447 1 1 1h1c1.078 0 2-.82 2-2v-6.82c4.94-4.893 8-11.678 8-19.18z"/><path fill="#CCD0D2" d="M50.013 27c12.704 0 23 10.297 23 23s-10.296 23-23 23c-12.703 0-23-10.3-23-23s10.298-23 23-23z"/><path fill="#DE6E65" d="M54.31 44.275L38.32 60.265c-.394.392-.394 1.032 0 1.427.395.393 1.033.393 1.428 0l15.987-15.987c.395-.394.395-1.033 0-1.43-.395-.392-1.034-.392-1.428 0z"/><path fill="#AEB2B4" d="M50.01 54.008c-2.212 0-4.004-1.79-4.004-4.003 0-.85.27-1.636.722-2.284-1.04.725-1.722 1.924-1.722 3.285 0 2.212 1.792 4.003 4.004 4.003 1.36 0 2.56-.683 3.283-1.72-.648.45-1.434.72-2.283.72z"/><path fill="#324D5B" d="M50.013 49h16c.553 0 1 .447 1 1s-.447 1-1 1h-16c-.553 0-1-.45-1-1s.447-1 1-1zM43.2 40.538l8.246 8.247c.73.73.73 1.916 0 2.646s-1.916.73-2.646 0l-8.247-8.247c-.73-.73-.73-1.916 0-2.646s1.914-.73 2.646 0z"/><path fill="#E4E7E7" d="M50.01 46c2.21 0 4.003 1.793 4.003 4.005s-1.793 4.003-4.003 4.003c-2.212 0-4.004-1.79-4.004-4.003S47.798 46 50.01 46z"/><path fill="#324D5B" d="M50.013 48c1.104 0 2 .895 2 2 0 1.104-.896 2-2 2s-2-.896-2-2c0-1.105.896-2 2-2z"/><path fill="#D96860" d="M46.568 52.018l-1 1c.347.592.836 1.08 1.427 1.428l1-1c-.59-.347-1.08-.837-1.427-1.428z"/><path fill="#B7BBBD" d="M50.013 27c-6.605 0-12.557 2.79-16.75 7.25 4.114-3.874 9.654-6.25 15.75-6.25 12.704 0 23 10.297 23 23 0 6.097-2.377 11.636-6.25 15.753 4.46-4.195 7.25-10.147 7.25-16.753 0-12.703-10.296-23-23-23z"/></svg>